<?xml version="1.0" encoding="UTF-8"?>
<svg version="1.1" xmlns="http://www.w3.org/2000/svg" width="3200" height="1077">
<path d="M0 0 C1056 0 2112 0 3200 0 C3200 355.41 3200 710.82 3200 1077 C2144 1077 1088 1077 0 1077 C0 721.59 0 366.18 0 0 Z " fill="#000000" transform="translate(0,0)"/>
<path d="M0 0 C1.07335098 -0.00095673 2.14670197 -0.00191345 3.25257874 -0.00289917 C5.51075296 -0.00357626 7.76892918 -0.00175504 10.02709961 0.00244141 C13.45886669 0.007791 16.89050259 0.002483 20.32226562 -0.00390625 C22.52734404 -0.00324528 24.73242236 -0.00196373 26.9375 0 C27.95134262 -0.00202423 28.96518524 -0.00404846 30.00975037 -0.00613403 C36.24272734 0.01409525 42.34640622 0.38839457 48.53515625 1.1328125 C48.53515625 1.7928125 48.53515625 2.4528125 48.53515625 3.1328125 C47.05015625 3.6278125 47.05015625 3.6278125 45.53515625 4.1328125 C48.39471925 5.562594 51.11232707 5.57934581 54.29296875 5.88671875 C54.9560202 5.95189194 55.61907166 6.01706512 56.30221558 6.08421326 C58.42118642 6.29163037 60.54064178 6.49353395 62.66015625 6.6953125 C64.09638946 6.83492382 65.53258791 6.97489334 66.96875 7.11523438 C70.49049133 7.45858534 74.01268783 7.79699331 77.53515625 8.1328125 C77.53515625 7.4728125 77.53515625 6.8128125 77.53515625 6.1328125 C87.78269092 7.34970724 97.58605859 9.4380579 107.53515625 12.1328125 C108.46827637 12.38192383 109.40139648 12.63103516 110.36279297 12.88769531 C123.73839986 16.47140517 136.94180106 20.33718058 149.92529297 25.16308594 C151.77580799 25.85066738 153.6293236 26.53019756 155.48486328 27.20410156 C158.57133594 28.32849784 161.64774979 29.47719913 164.72265625 30.6328125 C165.66705566 30.97618652 166.61145508 31.31956055 167.58447266 31.67333984 C175.4090962 34.67702608 182.91788342 38.8914347 187.53515625 46.1328125 C188.86032491 53.70302889 188.68465009 61.34124116 188.66015625 69.0078125 C188.66402344 70.21050781 188.66789062 71.41320312 188.671875 72.65234375 C188.65097507 91.90117485 188.65097507 91.90117485 186.53515625 96.1328125 C185.54515625 96.1328125 184.55515625 96.1328125 183.53515625 96.1328125 C183.54675781 97.11241943 183.55835938 98.09202637 183.5703125 99.10131836 C183.69098364 114.52042143 183.00975029 129.90610978 182.38964844 145.30981445 C181.83393861 159.23941838 181.40637298 173.13306013 181.57202148 187.07557678 C181.58048096 188.03411057 181.58894043 188.99264435 181.59765625 189.98022461 C181.60925781 190.80993271 181.62085938 191.63964081 181.6328125 192.49449158 C181.51320636 195.72581963 180.99244799 198.93177035 180.53515625 202.1328125 C173.27515625 202.1328125 166.01515625 202.1328125 158.53515625 202.1328125 C157.70113281 199.52375 156.86710937 196.9146875 156.0078125 194.2265625 C136.90477915 133.12109386 136.90477915 133.12109386 98.77734375 82.4765625 C97.53515625 81.1328125 97.53515625 81.1328125 97.53515625 79.1328125 C96.54515625 78.8028125 95.55515625 78.4728125 94.53515625 78.1328125 C93.01855469 76.61914062 93.01855469 76.61914062 91.39453125 74.6640625 C78.97606618 60.07399149 68.03493371 48.96405777 49.53515625 43.1328125 C47.9385821 42.57464731 46.34352307 42.0121296 44.75 41.4453125 C20.52998506 33.04775367 -5.41298867 31.14293436 -30.46484375 37.1328125 C-31.12709961 37.2884668 -31.78935547 37.44412109 -32.47167969 37.60449219 C-68.19135944 46.40703009 -91.41948885 72.70814187 -110.48046875 102.5234375 C-112.6830467 105.95791922 -114.97765008 109.28732019 -117.40234375 112.5703125 C-124.07229197 122.00705405 -127.53929634 132.81445208 -130.76123047 143.796875 C-131.5235476 146.3277044 -132.3362322 148.83885582 -133.15625 151.3515625 C-141.03956094 175.80525865 -145.14161024 200.9488929 -146.58984375 226.5703125 C-146.6318692 227.29783722 -146.67389465 228.02536194 -146.7171936 228.77493286 C-147.60124827 244.69826294 -147.65311794 260.62625886 -147.65234375 276.5703125 C-147.65370331 278.38727127 -147.65370331 278.38727127 -147.65509033 280.24093628 C-147.65335754 300.69642911 -147.27731646 321.00842866 -144.71484375 341.3203125 C-144.6267041 342.01925629 -144.53856445 342.71820007 -144.44775391 343.43832397 C-143.82374517 348.34183157 -143.15720215 353.23852297 -142.46484375 358.1328125 C-142.30564453 359.26879883 -142.14644531 360.40478516 -141.98242188 361.57519531 C-139.89258625 375.74011853 -136.12152043 389.18994463 -131.65234375 402.7578125 C-131.40798584 403.5074527 -131.16362793 404.2570929 -130.91186523 405.02944946 C-127.54952474 415.25066667 -123.433083 424.79635769 -118.41679382 434.31352234 C-117.41587894 436.22639009 -116.44238015 438.15146971 -115.47412109 440.08105469 C-108.39940848 454.11266621 -99.13549032 466.57070067 -88.83984375 478.3984375 C-87.35655907 480.10616657 -85.91854921 481.85561939 -84.5546875 483.66015625 C-82.01173848 486.6689165 -79.12935119 489.04766486 -76.02734375 491.4453125 C-75.41044678 491.92315186 -74.7935498 492.40099121 -74.15795898 492.89331055 C-43.4320815 516.32909987 -4.85007007 521.59953036 32.77734375 516.828125 C45.39086985 515.06085974 57.80607497 512.5105971 70.0703125 509.08203125 C75.51827804 507.58952209 81.02459324 506.36891031 86.53515625 505.1328125 C86.65918635 475.0670988 86.15729215 445.00418271 85.73472595 414.94229126 C85.610092 406.02789439 85.50050538 397.11379198 85.42060852 388.1988678 C85.37815225 383.75586957 85.3210155 379.31315948 85.25924683 374.87039185 C85.23520781 372.9076331 85.2176926 370.94478154 85.20730591 368.98190308 C85.14916759 358.62546259 84.66588599 349.81439878 80.53515625 340.1328125 C80.25559082 339.35623291 79.97602539 338.57965332 79.68798828 337.77954102 C76.72014317 329.65088675 67.99771202 326.20610473 60.66015625 322.6953125 C51.7711903 318.81696425 42.61568218 315.53063232 33.53515625 312.1328125 C33.53515625 306.8528125 33.53515625 301.5728125 33.53515625 296.1328125 C100.52515625 296.1328125 167.51515625 296.1328125 236.53515625 296.1328125 C234.12449687 310.59676877 234.12449687 310.59676877 230.53515625 315.1328125 C227.80669216 317.06205138 224.91347359 318.49325725 221.91015625 319.9453125 C210.48570469 325.90306578 201.0008276 333.5218904 196.53515625 346.1328125 C196.02781751 349.54863518 195.78860741 352.83362031 195.73828125 356.28515625 C195.53515625 359.1328125 195.53515625 359.1328125 194.54724121 360.94700623 C193.26426805 363.71785146 193.22205188 365.90281767 193.13867188 368.95336914 C193.10253784 370.14022812 193.06640381 371.3270871 193.0291748 372.5499115 C192.98572937 374.49553734 192.98572937 374.49553734 192.94140625 376.48046875 C192.90449256 377.8619158 192.86708638 379.24334976 192.82922363 380.62477112 C192.42028197 396.2575732 192.25576895 411.89601956 192.08932495 427.53289795 C191.99819545 436.08844324 191.89475727 444.64384248 191.7890625 453.19921875 C191.77882616 454.03195816 191.76858982 454.86469757 191.75804329 455.72267151 C191.52443619 474.53056743 191.12160479 493.33251676 190.53515625 512.1328125 C185.06524627 514.86931792 180.75903097 516.55103385 174.53515625 516.5078125 C168.64714021 516.7610605 165.31201967 517.7997756 160.79296875 521.5625 C155.46363299 525.26906224 148.54465687 526.81993807 142.33984375 528.5859375 C141.56622498 528.8072081 140.7926062 529.0284787 139.99554443 529.25645447 C123.50852506 533.93438164 107.00802703 538.15435583 90.16015625 541.3203125 C89.39830017 541.4685144 88.63644409 541.61671631 87.85150146 541.76940918 C78.03612383 543.65682822 68.68321477 544.40074579 58.68920898 544.14624023 C52.30859679 544.0272355 45.75116754 544.70038885 39.53515625 546.1328125 C39.20515625 546.7928125 38.87515625 547.4528125 38.53515625 548.1328125 C30.7312842 550.23714029 22.6306754 550.44984248 14.59765625 550.46875 C13.49101624 550.47712891 12.38437622 550.48550781 11.24420166 550.49414062 C7.67437311 550.51360119 4.10502889 550.51373021 0.53515625 550.5078125 C-0.68804321 550.50726868 -1.91124268 550.50672485 -3.17150879 550.50616455 C-70.32641585 550.3690152 -139.36733172 534.15716308 -192.46484375 491.1328125 C-193.0582959 490.65650391 -193.65174805 490.18019531 -194.26318359 489.68945312 C-208.95534489 477.81513867 -223.14025879 464.28327076 -234.46484375 449.1328125 C-235.32674791 448.01166109 -236.18873242 446.89057144 -237.05078125 445.76953125 C-263.70555001 410.67416421 -263.70555001 410.67416421 -265.91015625 391.1015625 C-266.97306263 385.41276777 -269.60904324 380.13822372 -272.46484375 375.1328125 C-273.12484375 374.8028125 -273.78484375 374.4728125 -274.46484375 374.1328125 C-278.86149156 363.61973967 -281.46919304 352.31918578 -283.46484375 341.1328125 C-283.61727539 340.28638184 -283.76970703 339.43995117 -283.92675781 338.56787109 C-289.26320374 307.01599046 -288.88789276 271.63940455 -283.46484375 240.1328125 C-283.2932373 239.13072754 -283.12163086 238.12864258 -282.94482422 237.09619141 C-277.72670103 207.78796602 -268.42400249 179.24364784 -254.41503906 152.93603516 C-253.45383595 151.11192258 -252.53089649 149.2721549 -251.61328125 147.42578125 C-243.73109245 131.78629028 -233.16857155 118.09064524 -221.46484375 105.1328125 C-220.94325684 104.5548291 -220.42166992 103.9768457 -219.88427734 103.38134766 C-211.82458255 94.48780626 -203.6545363 85.87150096 -194.46484375 78.1328125 C-193.66675293 77.45605469 -193.66675293 77.45605469 -192.85253906 76.765625 C-144.85357494 36.24599645 -82.9680856 8.48408888 -20.46484375 1.1328125 C-19.83854568 1.04907379 -19.21224762 0.96533508 -18.56697083 0.87905884 C-12.36501119 0.10063401 -6.2455486 -0.01244497 0 0 Z " fill="#FAF8F9" transform="translate(647.46484375,266.8671875)"/>
<path d="M0 0 C0.60457031 0.50789063 1.20914062 1.01578125 1.83203125 1.5390625 C23.59421811 21.41553294 30.78593881 55.0317384 32.10221624 83.18636274 C32.55997553 96.01898126 32.53055904 108.86820045 32.57631373 121.70726752 C32.59924238 126.98941089 32.64161326 132.27139343 32.68275452 137.55342102 C32.80127316 153.20640613 32.89208568 168.85953489 32.9730835 184.51275635 C33.03647994 196.72598757 33.10853248 208.93902757 33.20759112 221.15202838 C33.25742553 227.4150474 33.28926095 233.67780955 33.30712306 239.94099748 C33.3222566 243.83892298 33.35375149 247.7365941 33.38964653 251.63437843 C33.40291533 253.43054629 33.4095558 255.22677828 33.40880203 257.022995 C33.40838803 270.22654316 34.94619157 280.87605884 42.2421875 292.2578125 C46.69963521 296.67563846 52.98540235 296.38457658 58.875 296.375 C59.70128906 296.37628906 60.52757812 296.37757813 61.37890625 296.37890625 C68.54172679 296.25824618 75.02912074 294.88912691 81.875 292.875 C85 292 85 292 88 292 C88 300.25 88 308.5 88 317 C83 318 83 318 80.51171875 318.38671875 C77.57833955 319.10295597 75.40166858 320.26526613 72.8125 321.8125 C71.95269531 322.31394531 71.09289063 322.81539062 70.20703125 323.33203125 C67.90461709 324.78565854 67.90461709 324.78565854 67.17871094 326.9152832 C65.58057235 329.74181705 63.79741044 330.52631255 60.93359375 332.0234375 C59.8986377 332.56693848 58.86368164 333.11043945 57.79736328 333.67041016 C56.6886084 334.2329248 55.57985352 334.79543945 54.4375 335.375 C52.74343018 336.24390869 52.74343018 336.24390869 51.01513672 337.13037109 C42.21013283 341.56480699 33.43942811 345.1906464 24 348 C22.39898438 348.48533203 22.39898438 348.48533203 20.765625 348.98046875 C3.96678094 353.8158117 -13.42277 354.52537588 -29 346 C-42.83043962 338.00857048 -50.34536796 328.37790939 -56.96630859 314.18017578 C-58.90759581 310.08577455 -60.96056844 306.04617825 -63 302 C-63.80497925 302.54188965 -63.80497925 302.54188965 -64.6262207 303.09472656 C-77.28739127 311.60630232 -89.99832743 320.01576045 -103 328 C-103.79680176 328.49161621 -104.59360352 328.98323242 -105.41455078 329.48974609 C-134.95980717 347.59162604 -168.79800539 355.0853305 -203.12890625 347.46630859 C-207.31313116 346.42352812 -211.15535304 344.93330819 -215 343 C-216.03060547 342.52046875 -216.03060547 342.52046875 -217.08203125 342.03125 C-221.74166599 339.6777074 -221.74166599 339.6777074 -222.90234375 336.6328125 C-224.24748173 333.40639614 -225.88914997 332.04238352 -228.5625 329.8125 C-239.23173566 320.47119496 -248.08136455 309.41725049 -255 297 C-255 296.34 -255 295.68 -255 295 C-256.32 294.67 -257.64 294.34 -259 294 C-266.18673279 266.92141752 -261.57690245 239.22184614 -247.796875 214.97265625 C-233.76753389 191.72702715 -211.99368479 178.1989392 -188 167 C-187.02160156 166.53907959 -187.02160156 166.53907959 -186.0234375 166.06884766 C-171.29355622 159.23461598 -155.77563316 154.38242644 -140.3505249 149.39338684 C-135.42245696 147.79771464 -130.50862139 146.16546737 -125.60328674 144.50125122 C-122.32342071 143.39321168 -119.03647743 142.30726311 -115.74795532 141.22521973 C-114.21088785 140.71497903 -112.67646331 140.19667737 -111.14535522 139.66882324 C-96.93598907 134.78455915 -84.48270502 133.78646596 -69 132 C-68.505 99.825 -68.505 99.825 -68 67 C-68.99 67 -69.98 67 -71 67 C-71.15855469 65.83726562 -71.31710937 64.67453125 -71.48046875 63.4765625 C-75.42231461 34.72701623 -75.42231461 34.72701623 -90.125 10.4375 C-98.47217478 4.48074017 -110.13891116 -2.21121964 -120.578125 -0.65234375 C-131.18463736 2.20457168 -138.85458268 10.61275331 -144.31640625 19.7578125 C-161.30410267 49.77251032 -165.29599823 82.07567179 -166 116 C-170.07118309 115.88015732 -174.14220464 115.75584005 -178.21313477 115.62768555 C-179.59298151 115.58484114 -180.97286433 115.54314027 -182.3527832 115.50268555 C-202.65937748 114.90521583 -217.42474609 113.25740166 -232.0625 97.9375 C-241.1094348 87.36763429 -246.39902562 75.86297174 -246.375 61.875 C-246.37411377 60.95154785 -246.37322754 60.0280957 -246.37231445 59.07666016 C-246.24492642 51.6726348 -245.90800749 42.12627387 -240.53125 36.44921875 C-240.0259375 35.97097656 -239.520625 35.49273437 -239 35 C-238.06773358 33.5012236 -237.17514207 31.97740261 -236.3125 30.4375 C-225.31610897 11.82198792 -208.51714705 -1.95815786 -189 -11 C-188.34 -11 -187.68 -11 -187 -11 C-186.96712891 -11.89912109 -186.96712891 -11.89912109 -186.93359375 -12.81640625 C-186 -15 -186 -15 -183.03515625 -16.52734375 C-181.71780951 -17.01632414 -180.39281519 -17.4849895 -179.0625 -17.9375 C-178.34956787 -18.19055908 -177.63663574 -18.44361816 -176.90209961 -18.7043457 C-163.20306587 -23.46229905 -149.34762896 -26.92025195 -135 -29 C-134.32582031 -29.10441406 -133.65164063 -29.20882813 -132.95703125 -29.31640625 C-88.10213344 -36.0660004 -35.4536498 -30.45763464 0 0 Z " fill="#F9F8F6" transform="translate(1156,465)"/>
<path d="M0 0 C3.18011236 0.12967166 6.36049271 0.2495298 9.54101562 0.36865234 C20.24023112 0.78703152 30.91435566 1.36556777 41.58789062 2.22412109 C42.57633972 2.30145477 43.56478882 2.37878845 44.58319092 2.45846558 C67.86480216 4.44334987 91.35363733 17.99625812 106.47851562 35.62255859 C114.82572458 46.89129068 120.1579945 59.71337187 123.44726562 73.25537109 C123.64835937 73.94373047 123.84945312 74.63208984 124.05664062 75.34130859 C127.90490605 88.69362346 127.73996259 102.91160679 127.71850586 116.67407227 C127.72290464 118.56664756 127.72821093 120.45922092 127.73434448 122.35179138 C127.74575264 126.39377712 127.75129704 130.43571108 127.75222588 134.47771263 C127.75418363 140.88015281 127.77232727 147.28248725 127.79298401 153.68489075 C127.8419306 169.57800382 127.87304972 185.47114517 127.89428711 201.36431885 C127.9108433 213.73978142 127.93372497 226.11515181 127.97730786 238.49055272 C127.9989805 244.84446275 128.00715199 251.19819714 128.00491512 257.55214155 C128.00659049 261.51340759 128.02069058 265.47456026 128.0381279 269.43578529 C128.04369111 271.26058243 128.04424645 273.08540342 128.03919029 274.91020203 C128.00804392 287.4757081 128.82400148 299.12958138 134.00976562 310.81787109 C134.42355469 311.76791016 134.83734375 312.71794922 135.26367188 313.69677734 C135.65425781 314.54111328 136.04484375 315.38544922 136.44726562 316.25537109 C136.77210938 317.00302734 137.09695313 317.75068359 137.43164062 318.52099609 C138.38831889 320.54255805 138.38831889 320.54255805 141.13476562 321.44287109 C152.69397489 324.27814884 162.10308398 323.36856686 173.44726562 320.25537109 C176.44114018 319.55665921 179.44254722 318.90639342 182.44726562 318.25537109 C182.99713686 321.43185938 183.50543309 324.60586006 183.95507812 327.79833984 C184.24160155 329.81082579 184.57000406 331.81979503 185.00195312 333.80615234 C185.37374933 336.35885065 185.35239049 337.82963646 184.44726562 340.25537109 C181.00462207 344.03663533 176.76827915 346.59317732 172.44726562 349.25537109 C171.64289062 349.76148926 170.83851563 350.26760742 170.00976562 350.7890625 C146.40431225 365.55564355 121.79808365 377.59709549 93.44726562 377.63037109 C92.34898437 377.65486328 91.25070312 377.67935547 90.11914062 377.70458984 C75.46989564 377.75666062 63.70211873 371.56451858 53.25976562 361.50537109 C43.81079682 351.56457899 37.59251593 340.38939542 31.44726562 328.25537109 C31.0108374 328.59681152 30.57440918 328.93825195 30.12475586 329.29003906 C20.17065563 337.05306694 10.11940386 344.50618062 -0.55273438 351.25537109 C-1.555625 351.89087891 -2.55851562 352.52638672 -3.59179688 353.18115234 C-18.66901117 362.34533515 -35.32096594 368.39605036 -52.42773438 372.50537109 C-53.10505615 372.6686792 -53.78237793 372.8319873 -54.48022461 373.00024414 C-63.74957039 375.12176128 -72.87785218 375.43736478 -82.36523438 375.44287109 C-83.46416016 375.45511719 -84.56308594 375.46736328 -85.6953125 375.47998047 C-96.36232542 375.49883789 -106.3412857 374.52974399 -115.99023438 369.75537109 C-117.06736694 369.23305908 -117.06736694 369.23305908 -118.16625977 368.70019531 C-140.40527473 357.4856282 -156.06098416 337.89379614 -163.97460938 314.52099609 C-169.96922309 291.02859098 -164.73680873 267.69087297 -153.24023438 247.06787109 C-122.25336082 196.18053874 -60.14830166 177.03808278 -5.41674805 163.66650391 C-3.78249878 163.27736816 -3.78249878 163.27736816 -2.11523438 162.88037109 C-1.13466064 162.64157227 -0.15408691 162.40277344 0.85620117 162.15673828 C10.28783032 160.0081334 19.83236497 159.14892808 29.44726562 158.25537109 C29.40509283 150.62762878 29.33229068 143.00058675 29.23974609 135.37329102 C29.21179414 132.78709249 29.19045375 130.20081263 29.17626953 127.61450195 C29.0581574 107.27952973 27.5129111 89.31467413 19.75976562 70.38037109 C19.10512329 68.75071411 19.10512329 68.75071411 18.43725586 67.08813477 C17.54544182 64.87772035 16.64719245 62.66989028 15.7421875 60.46484375 C14.49984139 57.38568047 13.33262193 54.28761006 12.18164062 51.17333984 C7.51649473 38.44930136 7.51649473 38.44930136 -2.86914062 30.27490234 C-4.19751953 29.77023437 -4.19751953 29.77023437 -5.55273438 29.25537109 C-6.30425781 28.90861328 -7.05578125 28.56185547 -7.83007812 28.20458984 C-14.40008203 25.50768046 -22.37423269 24.5208987 -29.03710938 27.28662109 C-42.44153464 35.60660919 -49.74942151 49.70505048 -55.17773438 63.94287109 C-55.64179688 65.12042969 -56.10585937 66.29798828 -56.58398438 67.51123047 C-59.33699326 74.61539323 -61.64946727 81.72747493 -63.60424805 89.09179688 C-64.85767379 93.27246373 -66.60291513 97.12679698 -68.50195312 101.04833984 C-70.56761732 105.38700255 -70.7609472 109.27145543 -70.86914062 113.98583984 C-70.90031227 115.11147087 -70.90031227 115.11147087 -70.93211365 116.25984192 C-70.99743364 118.65409294 -71.0564123 121.04845248 -71.11523438 123.44287109 C-71.1584363 125.06723122 -71.20205113 126.69158042 -71.24609375 128.31591797 C-71.353097 132.2956248 -71.45441375 136.27544067 -71.55273438 140.25537109 C-70.23273437 140.25537109 -68.91273438 140.25537109 -67.55273438 140.25537109 C-67.55273438 141.24537109 -67.55273438 142.23537109 -67.55273438 143.25537109 C-83.97935879 143.8298522 -98.97365361 143.85113836 -114.55273438 138.25537109 C-115.76832031 137.83642578 -116.98390625 137.41748047 -118.23632812 136.98583984 C-126.1205584 134.00440823 -129.45343605 130.35475971 -133.71679688 123.09521484 C-134.28140625 122.13679687 -134.84601563 121.17837891 -135.42773438 120.19091797 C-136.00523438 119.2015625 -136.58273437 118.21220703 -137.17773438 117.19287109 C-138.05558594 115.70303711 -138.05558594 115.70303711 -138.95117188 114.18310547 C-143.62613845 106.22172318 -143.62613845 106.22172318 -145.55273438 102.25537109 C-146.54273438 102.25537109 -147.53273438 102.25537109 -148.55273438 102.25537109 C-151.97715803 87.31243149 -150.73284573 74.24459055 -144.55273438 60.25537109 C-143.90304687 58.75296875 -143.90304687 58.75296875 -143.24023438 57.22021484 C-140.19775411 50.93645588 -136.60802282 47.21841195 -131.02148438 43.08740234 C-126.32936351 39.60543291 -122.29490583 36.33345116 -120.30273438 30.75537109 C-117.60766686 25.36523606 -112.85971981 22.88656555 -107.55273438 20.25537109 C-106.7809082 20.10318115 -106.00908203 19.95099121 -105.21386719 19.79418945 C-102.36945079 19.21826037 -99.8830664 18.3190453 -97.18554688 17.25146484 C-96.1460791 16.84412109 -95.10661133 16.43677734 -94.03564453 16.01708984 C-92.373479 15.36160156 -92.373479 15.36160156 -90.67773438 14.69287109 C-81.88122885 11.27550586 -73.07162223 7.91177096 -64.17773438 4.75537109 C-63.28328613 4.42980225 -62.38883789 4.1042334 -61.46728516 3.76879883 C-41.69520794 -3.15712779 -20.58247386 -0.84658799 0 0 Z " fill="#FAF8F9" transform="translate(2155.552734375,438.74462890625)"/>
<path d="M0 0 C0.00423194 0.75118921 0.00846388 1.50237843 0.01282406 2.27633095 C0.25693204 45.5455164 0.51488958 88.81459447 0.79589844 132.08355713 C0.81984975 135.77608219 0.84377182 139.46860744 0.86767578 143.16113281 C0.8764159 144.50969006 0.8764159 144.50969006 0.88533258 145.88549089 C0.96637603 158.41663656 1.04041632 170.94780208 1.10809338 183.47902656 C1.16386528 193.77595113 1.22925778 204.07276795 1.30649471 214.36955452 C1.34598201 219.66410637 1.38088706 224.95858077 1.40328979 230.25323486 C1.42397597 235.11629302 1.45804611 239.97907182 1.50256538 244.84196854 C1.51603311 246.55706275 1.52487226 248.27220252 1.52805901 249.98734665 C1.57450309 271.56963313 3.45733389 294.84929978 18.4375 311.75 C19.283125 312.4925 20.12875 313.235 21 314 C21.48855469 314.47953125 21.97710938 314.9590625 22.48046875 315.453125 C32.171093 324.56829651 44.54853372 327.22248186 57.4375 327.625 C58.45521484 327.66367187 59.47292969 327.70234375 60.52148438 327.7421875 C63.01414936 327.83580872 65.5068195 327.92153993 68 328 C68 327.01 68 326.02 68 325 C68.680625 324.86464844 69.36125 324.72929688 70.0625 324.58984375 C83.9389878 321.5082301 95.94085922 315.94734506 107 307 C107.67675781 306.53207031 108.35351562 306.06414062 109.05078125 305.58203125 C114.81140829 301.37566333 116.72363492 295.57183481 119 289 C119.23403219 288.33572652 119.46806438 287.67145304 119.70918846 286.98705006 C126.2106479 268.12427356 125.45066255 248.39417848 125.40297651 228.7052691 C125.39527258 224.51812202 125.4024544 220.33099266 125.40713501 216.1438446 C125.41256001 209.12149455 125.40548541 202.09923981 125.39111328 195.0769043 C125.37477392 187.00096334 125.3800978 178.92524955 125.3965925 170.84931403 C125.41027808 163.86443038 125.41209329 156.87961444 125.40427649 149.89472169 C125.39964101 145.74508237 125.39885994 141.59554928 125.40888596 137.44591713 C125.4176581 133.54436155 125.41135051 129.64309447 125.39420319 125.74156952 C125.39029311 124.32439079 125.39127602 122.90718706 125.39799118 121.49001884 C125.46244438 106.48551203 123.09647708 92.7623443 117 79 C116.70738281 78.27425781 116.41476562 77.54851562 116.11328125 76.80078125 C113.21986201 72.12054873 106.60200306 70.44439126 101.578125 69.05078125 C94.7624331 67.52543535 87.96889242 66.46566332 81 66 C79.75799248 60.6822785 78.69165788 55.41798672 78 50 C85.45115943 46.87003218 93.04000902 44.23934349 100.71218872 41.71276855 C102.95441246 40.97382911 105.1950053 40.23010965 107.43530273 39.48535156 C116.00441784 36.63857201 124.57896747 33.80842693 133.15609741 30.98589325 C138.45754703 29.24080808 143.75699471 27.48971047 149.0554657 25.73560333 C152.36049497 24.64181089 155.66643192 23.55096388 158.97479248 22.46728516 C171.83473347 18.25374281 184.50131934 13.95457494 196.89358521 8.50408936 C202.66323298 6.01482732 208.15921855 4.5792316 214.4375 4 C215.31986328 3.89300781 216.20222656 3.78601563 217.11132812 3.67578125 C220.78504746 3.24620435 224.29338726 3 228 3 C228 102.99 228 202.98 228 306 C229.32 306.33 230.64 306.66 232 307 C233.32479995 309.68061527 234.21848671 312.40496631 235.16796875 315.23828125 C239.54959969 321.8434264 249.14254106 323.00571184 256.4375 324.6875 C258.20748981 325.10613886 259.97704519 325.52662011 261.74609375 325.94921875 C262.90129517 326.21738403 262.90129517 326.21738403 264.07983398 326.4909668 C266 327 266 327 268 328 C268 333.28 268 338.56 268 344 C251.33274078 350.37763721 234.62880512 356.65425433 217.89556885 362.85671997 C215.85118686 363.6148286 213.80719601 364.37399289 211.76361084 365.13424683 C208.85008149 366.21766786 205.93502282 367.29687214 203.01953125 368.375 C202.15686142 368.69650528 201.29419159 369.01801056 200.40538025 369.34925842 C183.56207582 375.55669299 183.56207582 375.55669299 175.875 374.8125 C173.97041016 374.63267578 173.97041016 374.63267578 172.02734375 374.44921875 C170.68488059 374.29961584 169.3424331 374.1498724 168 374 C166.5638593 373.86008851 165.12766041 373.72077321 163.69140625 373.58203125 C150.75498718 372.21389715 150.75498718 372.21389715 146 369 C144.16340766 366.61224758 142.80629893 364.05208318 141.4375 361.375 C141.05400391 360.65803955 140.67050781 359.9410791 140.27539062 359.20239258 C139.5168608 357.78335783 138.76454025 356.36098318 138.01904297 354.93505859 C136.73104828 352.48928813 135.36919853 350.08855829 134 347.6875 C131.4127347 343.11486793 130.87934392 339.63024308 130.90234375 334.36328125 C130.90556641 333.06455078 130.90878906 331.76582031 130.91210938 330.42773438 C130.92046469 329.05598892 130.92892963 327.68424413 130.9375 326.3125 C130.94251665 324.92903805 130.94707927 323.54557437 130.95117188 322.16210938 C130.96297471 318.77469605 130.97943981 315.38736967 131 312 C128.05475761 312.33384701 128.05475761 312.33384701 125 313 C123.26153522 315.1506151 123.26153522 315.1506151 122.125 317.9375 C114.86861288 332.45027423 99.17118188 350.43196004 83.296875 355.9375 C81.54707934 356.35661273 79.79150302 356.75224054 78.03125 357.125 C73.2722215 358.49874018 69.02625165 360.82943207 64.65698242 363.13305664 C61.6182332 364.72727263 58.88023068 366.03709427 55.58203125 367.05859375 C54.30392578 367.52458984 54.30392578 367.52458984 53 368 C52.67 368.99 52.34 369.98 52 371 C42.48939171 375.97648108 30.43597633 376.30623826 19.97265625 376.265625 C18.86248642 376.26753845 17.75231659 376.2694519 16.60850525 376.27142334 C14.27651745 376.27277548 11.94452187 376.26914744 9.61254883 376.26074219 C6.07550871 376.25003936 2.5389776 376.2606658 -0.99804688 376.2734375 C-3.27864694 376.27211553 -5.55924669 376.26955238 -7.83984375 376.265625 C-8.88083725 376.26967346 -9.92183075 376.27372192 -10.99436951 376.27789307 C-18.16808792 376.23287778 -24.96469038 375.37802415 -32 374 C-33.47320961 373.71289154 -33.47320961 373.71289154 -34.97618103 373.41998291 C-54.43308262 369.41681056 -72.96074598 359.11613353 -84.3125 342.7265625 C-97.21472457 323.11962926 -101.09998894 300.86821467 -101.18945312 277.7890625 C-101.19777475 276.61618179 -101.20609638 275.44330109 -101.21467018 274.23487854 C-101.24114031 270.36493357 -101.2611658 266.49498293 -101.28125 262.625 C-101.29838866 259.88321252 -101.31700333 257.1414357 -101.33566284 254.3996582 C-101.37457774 248.59832066 -101.41065675 242.79697172 -101.44500732 236.99560547 C-101.49860865 227.99831875 -101.56179095 219.00111221 -101.62744141 210.00390625 C-101.63282936 209.2638994 -101.63821732 208.52389256 -101.64376855 207.76146126 C-101.67084424 204.04575641 -101.69804976 200.33005254 -101.72535324 196.61434937 C-101.75777271 192.19968891 -101.78976346 187.7850254 -101.82168579 183.37036133 C-101.87154175 176.48026163 -101.92192423 169.59016598 -101.97273254 162.70007324 C-101.99018158 160.3323167 -102.00755345 157.96455959 -102.02482605 155.59680176 C-102.10652593 144.42933959 -102.19818781 133.26220919 -102.32983398 122.09521484 C-102.36118928 119.39242792 -102.38562351 116.68972507 -102.40356445 113.98681641 C-102.430023 110.36590629 -102.47406547 106.74565919 -102.5234375 103.125 C-102.52665009 102.13218018 -102.52986267 101.13936035 -102.53317261 100.11645508 C-102.69515778 91.11601273 -104.13328537 81.71837993 -110.12109375 74.6484375 C-118.68177498 67.13781904 -133.19476702 67.32431825 -144 66 C-144 60.72 -144 55.44 -144 50 C-136.60079888 46.13207964 -129.16083989 43.02162274 -121.3125 40.1875 C-120.70224976 39.96532806 -120.09199951 39.74315613 -119.46325684 39.51425171 C-105.95580861 34.59946811 -92.35268477 29.95551777 -78.75 25.3125 C-77.15498154 24.76703018 -77.15498154 24.76703018 -75.52774048 24.21054077 C-72.49370753 23.17438299 -69.45812897 22.14291019 -66.421875 21.11328125 C-65.49926376 20.79819611 -64.57665253 20.48311096 -63.62608337 20.15847778 C-62.78106766 19.87326263 -61.93605194 19.58804749 -61.06542969 19.29418945 C-59.95539581 18.91759941 -59.95539581 18.91759941 -58.82293701 18.53340149 C-57 18 -57 18 -55 18 C-55 18.66 -55 19.32 -55 20 C-46.56470348 17.92574676 -38.37986672 15.16902129 -30.17504883 12.33764648 C-29.29228271 12.03673096 -28.4095166 11.73581543 -27.5 11.42578125 C-26.7059375 11.15161377 -25.911875 10.87744629 -25.09375 10.5949707 C-23 10 -23 10 -20 10 C-19.96261719 9.23300781 -19.92523437 8.46601563 -19.88671875 7.67578125 C-19 5 -19 5 -16.26953125 3.41796875 C-15.12871094 3.01191406 -13.98789063 2.60585938 -12.8125 2.1875 C-11.68457031 1.76855469 -10.55664062 1.34960938 -9.39453125 0.91796875 C-6.06681663 0.01806894 -3.42025589 -0.07038796 0 0 Z " fill="#F9F9F9" transform="translate(1391,438)"/>
<path d="M0 0 C62.7 0 125.4 0 190 0 C190 4.29 190 8.58 190 13 C188.94941406 13.51949219 187.89882812 14.03898437 186.81640625 14.57421875 C182.53467301 16.69724057 178.26555531 18.84469485 174 21 C172.51693359 21.74443359 172.51693359 21.74443359 171.00390625 22.50390625 C169.82634766 23.12072266 169.82634766 23.12072266 168.625 23.75 C167.95726563 24.09546875 167.28953125 24.4409375 166.6015625 24.796875 C164.54634861 26.34079177 163.96868337 27.61909315 163 30 C162.57069077 33.92484042 162.66727478 37.86656027 162.6875 41.8125 C162.69595947 43.50838257 162.69595947 43.50838257 162.70458984 45.23852539 C162.87322124 56.89830115 164.96181703 67.17209405 168.65625 78.21484375 C168.91757721 78.99624725 169.17890442 79.77765076 169.44815063 80.58273315 C172.2175307 88.77271097 175.25986787 96.85299809 178.34500122 104.92828369 C180.20299684 109.79284004 182.04757119 114.66249554 183.89453125 119.53125 C184.29536423 120.58692169 184.6961972 121.64259338 185.10917664 122.73025513 C190.46614046 136.84709105 195.76347522 150.98633943 201.0625 165.125 C201.31869362 165.8085128 201.57488724 166.4920256 201.8388443 167.19625092 C205.56202057 177.12978971 209.28187057 187.0645712 213 197 C213.43278259 198.15616821 213.86556519 199.31233643 214.3114624 200.50354004 C216.62154273 206.67550011 218.92921529 212.84834813 221.23239136 219.02288818 C221.89880585 220.80882707 222.56587497 222.59452186 223.2336731 224.37994385 C233 250.49928544 233 250.49928544 233 255 C233.66 255 234.32 255 235 255 C235.09861328 254.35619385 235.19722656 253.7123877 235.29882812 253.04907227 C236.24084448 248.95267874 237.72083493 245.13696565 239.21875 241.21484375 C239.54823135 240.3432663 239.87771271 239.47168884 240.21717834 238.57369995 C241.3074418 235.69342831 242.40357367 232.81543072 243.5 229.9375 C244.26963079 227.90916695 245.0390778 225.88076415 245.80834961 223.85229492 C251.70706055 208.31758123 257.68501711 192.81365985 263.69140625 177.3203125 C267.16335385 168.3615464 270.61977591 159.39754153 274.02734375 150.4140625 C274.35664886 149.54613571 274.68595398 148.67820892 275.02523804 147.78398132 C276.34353966 144.30822551 277.66143527 140.83231902 278.97692871 137.35549927 C282.78413408 127.29909678 286.66581978 117.27823524 290.67578125 107.30078125 C291.06450409 106.33063583 291.45322693 105.36049042 291.85372925 104.36094666 C293.7236857 99.69558491 295.60420709 95.03510087 297.50585938 90.38256836 C303.07283852 76.63125095 306.53944138 64.06641699 306.4375 49.0625 C306.45748047 47.99193359 306.47746094 46.92136719 306.49804688 45.81835938 C306.49329782 38.13913108 305.36999954 33.85035582 300.24609375 27.99609375 C290.79584756 19.85214509 279.25160221 15.13230978 268 10 C268 6.7 268 3.4 268 0 C313.54 0 359.08 0 406 0 C406 4.29 406 8.58 406 13 C404.39511719 13.68964844 402.79023438 14.37929688 401.13671875 15.08984375 C384.80226468 22.08050232 384.80226468 22.08050232 371 33 C370.22140625 33.76699219 369.4428125 34.53398437 368.640625 35.32421875 C352.77784508 51.85238373 344.86861336 74.41021551 336.63700867 95.3324585 C332.34438053 106.22609705 327.91852478 117.0665258 323.51464844 127.91552734 C322.78833855 129.70537406 322.06210161 131.49525038 321.3359375 133.28515625 C320.79658569 134.61435089 320.79658569 134.61435089 320.24633789 135.97039795 C318.0890115 141.29334526 315.94894349 146.62283533 313.82444763 151.95896912 C312.47798259 155.33964708 311.12540649 158.71786466 309.77236938 162.09591675 C309.14214301 163.67437803 308.51490781 165.25403753 307.89096069 166.83499146 C302.49798962 180.49550371 302.49798962 180.49550371 298.94921875 185.78125 C295.51282408 191.1497337 294.08616667 196.96819792 292.36790466 203.04351807 C289.68353188 212.4107882 286.03337569 221.28240952 282.25 230.25 C281.53984267 231.95077083 280.83046053 233.65186553 280.12182617 235.35327148 C278.72732184 238.69877698 277.32778951 242.04211565 275.92529297 245.38427734 C274.22003111 249.45804606 272.5570709 253.54683104 270.91015625 257.64453125 C270.46317383 258.74829102 270.01619141 259.85205078 269.55566406 260.98925781 C268.7570874 262.96342965 267.96546459 264.94043661 267.18261719 266.92089844 C265.61912063 270.74325487 264.19110444 274.02786601 261.421875 277.12109375 C258.51133723 280.58087817 257.3156851 283.75157754 255.9375 288 C255.70740234 288.66644531 255.47730469 289.33289063 255.24023438 290.01953125 C254.12485534 293.31371919 253.10303556 296.6059853 252.22290039 299.97167969 C249.59335666 309.91735746 245.78720255 319.16842177 241.7097168 328.59667969 C240.5598969 331.25602054 239.42252279 333.92041817 238.28710938 336.5859375 C228.4804639 359.5195361 228.4804639 359.5195361 225 363 C222.86129761 363.24050903 222.86129761 363.24050903 220.18310547 363.22705078 C219.18221893 363.22689972 218.1813324 363.22674866 217.15011597 363.22659302 C215.52506638 363.21110916 215.52506638 363.21110916 213.8671875 363.1953125 C212.76021515 363.1924826 211.6532428 363.18965271 210.51272583 363.18673706 C206.96670863 363.17551519 203.42094125 363.15040691 199.875 363.125 C197.47526406 363.1149728 195.07552417 363.1058465 192.67578125 363.09765625 C186.78376849 363.07556932 180.89190209 363.04207207 175 363 C169.36873974 352.01342145 164.19832108 340.89836467 159.3125 329.5625 C158.584879 327.88254422 157.85700663 326.20269729 157.12890625 324.52294922 C155.1609901 319.97811702 153.20007982 315.43029498 151.24127197 310.88153076 C149.97645914 307.94535144 148.70983778 305.00995754 147.44287109 302.07470703 C135.72794463 274.92419718 124.21726123 247.69669875 112.96746826 220.35028076 C111.69777946 217.26581249 110.42514559 214.18256422 109.15226746 211.09941101 C107.64221193 207.44167248 106.13341644 203.78341474 104.625 200.125 C104.36534454 199.49530304 104.10568909 198.86560608 103.83816528 198.21682739 C101.88607256 193.48035436 99.94172293 188.74073258 98 184 C97.63928406 183.12009399 97.27856812 182.24018799 96.90692139 181.33361816 C91.23616856 167.49076594 85.63594959 153.62084025 80.07914352 139.73193741 C79.01890907 137.08243354 77.95790818 134.43323792 76.89663696 131.78414917 C76.54218317 130.89935316 76.18772938 130.01455715 75.82253456 129.10294914 C75.10040541 127.30041259 74.37824618 125.49788809 73.65605736 123.69537544 C71.82579345 119.12617661 69.99773036 114.55611729 68.17382812 109.984375 C66.37032767 105.46421956 64.56083873 100.9465004 62.74757767 96.43025208 C62.07184768 94.74425044 61.39816025 93.05742829 60.72681808 91.36967468 C57.14559048 82.36959329 53.39256692 73.48732816 49.26025391 64.72460938 C48.89331106 63.94499596 48.52636822 63.16538254 48.14830589 62.36214447 C42.55761148 50.68407686 35.04325064 41.1774235 26 32 C25.37867187 31.36578125 24.75734375 30.7315625 24.1171875 30.078125 C17.73225776 24.0654109 9.94931916 19.6500585 2.54711914 15.01220703 C1 14 1 14 0 13 C0 8.71 0 4.42 0 0 Z " fill="#F7F7F7" transform="translate(2291,447)"/>
<path d="M0 0 C1.09871778 0.9417581 2.18986392 1.89241842 3.2734375 2.8515625 C4.09328125 3.55539062 4.09328125 3.55539062 4.9296875 4.2734375 C6.5229587 5.6532561 8.08656454 7.06140863 9.6484375 8.4765625 C10.51855469 9.23582031 11.38867188 9.99507813 12.28515625 10.77734375 C15.37538746 14.3068475 17.01808411 17.99779456 18.8359375 22.2890625 C19.17818359 23.05798828 19.52042969 23.82691406 19.87304688 24.61914062 C26.90987746 40.81068285 29.23103177 63.42781372 23.5859375 80.2890625 C18.76430123 91.56678802 12.41191555 99.68205542 1.08984375 104.58203125 C-8.65124281 108.15116537 -19.90287615 109.55339928 -29.8515625 105.8515625 C-41.70352544 100.1832324 -50.20806158 90.16785458 -57.7890625 79.7265625 C-58.41232422 78.88996094 -59.03558594 78.05335938 -59.67773438 77.19140625 C-64.53547626 70.56288794 -64.53547626 70.56288794 -65.3515625 66.4765625 C-67.65932898 60.75068906 -72.86302425 57.64141019 -78.2890625 55.1015625 C-89.20748167 52.87331369 -96.32398377 56.68736521 -105.3515625 62.4765625 C-120.95672574 73.40980958 -127.9584361 95.43250612 -131.3515625 113.4765625 C-133.12401827 123.57067355 -133.64050898 133.44730316 -133.61035156 143.66723633 C-133.61306951 145.237759 -133.61663491 146.8082804 -133.62097168 148.37879944 C-133.63000469 152.60215009 -133.62658878 156.82540183 -133.62021351 161.04875398 C-133.61510329 165.49838136 -133.61985902 169.94800102 -133.62298584 174.39762878 C-133.62661212 181.86934915 -133.62186287 189.34102982 -133.61230469 196.81274414 C-133.60143472 205.40826984 -133.60494055 214.00370053 -133.6159575 222.59922391 C-133.62508305 230.02052546 -133.62628973 237.44179869 -133.62108016 244.86310405 C-133.61798769 249.27719372 -133.61747483 253.69123901 -133.62415314 258.1053257 C-133.63000279 262.26119664 -133.6257931 266.41694723 -133.61436462 270.5728054 C-133.61175769 272.08309099 -133.61241354 273.59338701 -133.61688995 275.10366821 C-133.85448711 295.59444385 -133.85448711 295.59444385 -128.2265625 314.9765625 C-127.91871826 315.63325928 -127.61087402 316.28995605 -127.29370117 316.96655273 C-119.05863228 333.74153945 -102.65549315 339.48822364 -86.45117188 346.53442383 C-84.39164432 347.45857695 -82.3706143 348.4670366 -80.3515625 349.4765625 C-80.3515625 354.7565625 -80.3515625 360.0365625 -80.3515625 365.4765625 C-147.3415625 365.4765625 -214.3315625 365.4765625 -283.3515625 365.4765625 C-283.3515625 359.2065625 -283.3515625 352.9365625 -283.3515625 346.4765625 C-280.9796875 345.3009375 -278.6078125 344.1253125 -276.1640625 342.9140625 C-256.59182223 334.27303482 -256.59182223 334.27303482 -243.3515625 318.4765625 C-238.55081117 300.71768561 -239.20177558 281.27030282 -239.17456055 263.02026367 C-239.168276 261.13577149 -239.16162755 259.2512805 -239.15464783 257.36679077 C-239.13387036 251.25104596 -239.12328182 245.13530157 -239.11328125 239.01953125 C-239.10922612 236.89961549 -239.10510899 234.77969984 -239.10093117 232.65978432 C-239.08195052 222.70938935 -239.0676956 212.75900154 -239.0593192 202.80859202 C-239.04952341 191.36682318 -239.02311302 179.92524657 -238.98281831 168.48354548 C-238.95262069 159.60155841 -238.93784754 150.71962647 -238.93453819 141.83758909 C-238.93219535 136.54781411 -238.92333179 131.25824625 -238.89807701 125.96852684 C-238.8747219 120.99836587 -238.87059286 116.02854752 -238.88083839 111.05834579 C-238.88133177 109.24278304 -238.87507042 107.4272029 -238.86128235 105.61169243 C-238.76627471 92.35347642 -239.58375658 78.61845461 -249.3515625 68.4765625 C-256.60511851 63.65660997 -264.65027707 61.3664514 -273.2265625 60.3515625 C-275.5778125 60.0628125 -277.9290625 59.7740625 -280.3515625 59.4765625 C-280.3515625 54.1965625 -280.3515625 48.9165625 -280.3515625 43.4765625 C-250.18578237 29.86630816 -218.70111183 19.00950408 -187.3515625 8.4765625 C-186.11470703 8.06067871 -184.87785156 7.64479492 -183.60351562 7.21630859 C-150.54648954 -3.83268963 -150.54648954 -3.83268963 -139.3515625 -3.5234375 C-139.03803757 -0.58604378 -138.72572569 2.35147111 -138.4140625 5.2890625 C-138.32705078 6.10310547 -138.24003906 6.91714844 -138.15039062 7.75585938 C-137.96998551 9.45968542 -137.79315301 11.1638925 -137.61938477 12.8684082 C-137.44909679 14.5267368 -137.27079984 16.18427731 -137.08178711 17.84057617 C-136.05457094 27.58234517 -136.00053494 37.37849883 -135.7890625 47.1640625 C-135.74578168 49.04102347 -135.70216466 50.91797672 -135.65820312 52.79492188 C-135.55211227 57.35538896 -135.45057504 61.91593648 -135.3515625 66.4765625 C-134.37990132 65.36288912 -133.41103494 64.24677691 -132.44335938 63.12963867 C-131.90352417 62.50836594 -131.36368896 61.8870932 -130.80749512 61.24699402 C-129.13122464 59.20862901 -127.95503977 57.18410976 -126.8515625 54.7890625 C-126.449375 53.9434375 -126.0471875 53.0978125 -125.6328125 52.2265625 C-125.21 51.3190625 -124.7871875 50.4115625 -124.3515625 49.4765625 C-115.90733743 31.8694549 -115.90733743 31.8694549 -108.3515625 27.4765625 C-103.4974851 23.29458812 -99.70700885 18.65023636 -96.0390625 13.4140625 C-91.58096817 7.35562661 -86.97282476 3.92882491 -80.3515625 0.4765625 C-79.38734375 -0.06742187 -78.423125 -0.61140625 -77.4296875 -1.171875 C-57.4814318 -11.55104357 -18.57012611 -14.88830657 0 0 Z " fill="#F8F8F8" transform="translate(1958.3515625,444.5234375)"/>
<path d="M0 0 C9.23159536 2.76993176 9.23159536 2.76993176 18.24609375 1.8046875 C25.35506784 4.21024944 31.59606587 7.91344436 37.24609375 12.8046875 C37.890625 13.35511719 38.53515625 13.90554688 39.19921875 14.47265625 C49.58327459 24.05951095 59.28413559 39.65482428 60.4230957 54.0402832 C60.9963132 76.866215 56.73666297 95.42576533 40.6953125 112.5234375 C28.63527716 124.65867832 15.48382232 129.93157741 -1.53320312 130.0390625 C-2.27820068 130.04099609 -3.02319824 130.04292969 -3.79077148 130.04492188 C-6.04904219 130.05461298 -8.30639609 130.08566484 -10.56445312 130.1171875 C-26.03705919 130.2318367 -34.30842077 125.36385615 -45.19140625 114.7421875 C-59.83567907 100.06207869 -69.04620459 82.1903282 -70.06640625 61.2421875 C-69.7845861 44.25611817 -60.18189942 26.07845067 -48.31494141 14.22705078 C-34.68396064 1.80695476 -17.93057834 -4.79671523 0 0 Z " fill="#F7F7F7" transform="translate(2730.75390625,684.1953125)"/>
<path d="M0 0 C0 39.27 0 78.54 0 119 C-19.54891304 128.77445652 -19.54891304 128.77445652 -24.875 131.3125 C-25.52984375 131.63283203 -26.1846875 131.95316406 -26.859375 132.28320312 C-39.69629063 138.38947914 -52.89676122 139.8571744 -67 138 C-71.5076429 136.36937658 -74.53081851 134.25772662 -78 131 C-78.66644531 130.49855469 -79.33289062 129.99710938 -80.01953125 129.48046875 C-86.90481267 124.21866421 -90.5846916 117.52371476 -92 109 C-94.15098348 81.31666317 -87.88755645 55.97418571 -69.625 34.625 C-65.1674553 29.9344302 -60.47341587 26.42173694 -55 23 C-54.02087646 22.36239746 -54.02087646 22.36239746 -53.02197266 21.71191406 C-42.85868937 15.1086125 -32.44341314 9.5578221 -21.3125 4.75 C-20.22646484 4.27208008 -19.14042969 3.79416016 -18.02148438 3.30175781 C-16.97927734 2.86702148 -15.93707031 2.43228516 -14.86328125 1.984375 C-13.94844971 1.59991211 -13.03361816 1.21544922 -12.09106445 0.81933594 C-9 0 -9 0 0 0 Z " fill="#020202" transform="translate(2185,622)"/>
<path d="M0 0 C0 39.27 0 78.54 0 119 C-37.13606501 138.54529737 -37.13606501 138.54529737 -55.0625 138.5 C-56.08666016 138.52835938 -57.11082031 138.55671875 -58.16601562 138.5859375 C-67.79459397 138.61054728 -74.44949706 135.02153851 -81.44140625 128.5625 C-90.72609778 119.25453856 -92.37122852 106.56900014 -92.4375 93.875 C-92.1457944 72.60060887 -85.17593875 52.06299799 -69.96875 36.89453125 C-59.043891 26.34796367 -59.043891 26.34796367 -55 25 C-55 24.34 -55 23.68 -55 23 C-51.55157781 20.3926564 -48.26876971 18.67716623 -44.27709961 17.00170898 C-38.35181616 14.39514331 -32.56918375 11.45978508 -26.75463867 8.61572266 C-9.12285232 0 -9.12285232 0 0 0 Z " fill="#020202" transform="translate(1088,622)"/>
<path d="M0 0 C0.33 0 0.66 0 1 0 C3.78859386 25.59424842 3.20153697 51.29535374 3 77 C1.02 77 -0.96 77 -3 77 C-3 81.95 -3 86.9 -3 92 C-3.99 92 -4.98 92 -6 92 C-6.17519792 78.60449688 -5.69627087 65.24076307 -5.20043945 51.85595703 C-5.06304595 48.13976683 -4.93059251 44.42342486 -4.79882812 40.70703125 C-4.33394664 27.79566686 -3.79329653 14.89560637 -3 2 C-2.01 2 -1.02 2 0 2 C0 1.34 0 0.68 0 0 Z " fill="#343434" transform="translate(834,361)"/>
<path d="M0 0 C1.35351562 -0.02416992 1.35351562 -0.02416992 2.734375 -0.04882812 C3.60578125 -0.04947266 4.4771875 -0.05011719 5.375 -0.05078125 C6.16648437 -0.05376221 6.95796875 -0.05674316 7.7734375 -0.05981445 C10.51489612 0.39859831 11.9200983 1.51662598 14 3.3125 C13.95068359 5.13549805 13.95068359 5.13549805 13 7.3125 C10.5602874 8.47885889 8.34815429 9.33727442 5.7890625 10.14453125 C5.06512299 10.38539963 4.34118347 10.62626801 3.5953064 10.87443542 C2.06285353 11.38044335 0.52772132 11.87839705 -1.00976562 12.36889648 C-3.36489097 13.12176841 -5.70982036 13.90138037 -8.0546875 14.68554688 C-9.54374424 15.17348496 -11.03331234 15.65986584 -12.5234375 16.14453125 C-13.22665131 16.37775589 -13.92986511 16.61098053 -14.65438843 16.85127258 C-19.65230993 18.42839669 -19.65230993 18.42839669 -23 17.3125 C-20.79481153 11.43199742 -17.77805269 4.58126725 -12.18920898 1.22509766 C-8.27174941 -0.4079417 -4.18850495 -0.01495895 0 0 Z " fill="#111111" transform="translate(1358,440.6875)"/>
<path d="M0 0 C1.32 0.33 2.64 0.66 4 1 C3.73641666 5.9440101 3.469774 10.88784284 3.20043945 15.83154297 C3.10945318 17.50923323 3.01926622 19.18696707 2.92993164 20.86474609 C2.46429669 29.59995376 1.98291613 38.30429156 1 47 C-2 48 -2 48 -6 48 C-6.09982927 43.3410447 -6.17191433 38.68272922 -6.21972656 34.02294922 C-6.23968422 32.44210955 -6.2668606 30.86134217 -6.30175781 29.28076172 C-6.50000167 20.06242247 -6.511755 12.32412572 -2 4 C-1.33229655 2.66718556 -0.66531922 1.3340062 0 0 Z " fill="#151415" transform="translate(2090,531)"/>
<path d="M0 0 C0.33 0 0.66 0 1 0 C1 9.24 1 18.48 1 28 C-1.413125 29.134375 -3.82625 30.26875 -6.3125 31.4375 C-7.06829346 31.79384521 -7.82408691 32.15019043 -8.6027832 32.51733398 C-19.23810078 37.49814362 -26.44247111 36.19299077 -37.15625 32.484375 C-40 31 -40 31 -40.96875 28.953125 C-41 27 -41 27 -40 25 C-35.91050019 25.11964576 -31.82116953 25.24395921 -27.73193359 25.37231445 C-26.34525251 25.41521641 -24.9585336 25.45691549 -23.57177734 25.49731445 C-21.56075707 25.55612046 -19.54991965 25.61947564 -17.5390625 25.68359375 C-16.33459473 25.72025146 -15.13012695 25.75690918 -13.88916016 25.79467773 C-9.24850213 26.03967418 -4.62405786 26.53759421 0 27 C0 18.09 0 9.18 0 0 Z " fill="#1C1C1C" transform="translate(990,554)"/>
<path d="M0 0 C1 1.9375 1 1.9375 1 4 C0.34 4.99 -0.32 5.98 -1 7 C-3.88916016 7.34057617 -3.88916016 7.34057617 -7.5390625 7.29296875 C-9.49199219 7.2784668 -9.49199219 7.2784668 -11.484375 7.26367188 C-12.86458923 7.23860388 -14.24479756 7.21320902 -15.625 7.1875 C-17.01300663 7.17245517 -18.40102867 7.15876641 -19.7890625 7.14648438 C-23.19309509 7.1110257 -26.59635622 7.06160298 -30 7 C-30 6.34 -30 5.68 -30 5 C-32.97 4.67 -35.94 4.34 -39 4 C-31.07862489 -3.26126052 -9.19651646 -4.97108998 0 0 Z " fill="#131313" transform="translate(720,812)"/>
<path d="M0 0 C0.80630859 0.00064453 1.61261719 0.00128906 2.44335938 0.00195312 C5.89561588 0.02778048 8.50410941 0.08470314 11.8125 1.1875 C11.8125 1.8475 11.8125 2.5075 11.8125 3.1875 C12.4725 3.1875 13.1325 3.1875 13.8125 3.1875 C14.9375 6.9375 14.9375 6.9375 13.8125 9.1875 C7.12785465 9.28319022 0.59113552 8.94215195 -6.0625 8.3125 C-7.46628906 8.19455078 -7.46628906 8.19455078 -8.8984375 8.07421875 C-9.795625 7.99042969 -10.6928125 7.90664063 -11.6171875 7.8203125 C-12.82737549 7.71033936 -12.82737549 7.71033936 -14.06201172 7.59814453 C-16.1875 7.1875 -16.1875 7.1875 -19.1875 5.1875 C-17.8675 4.8575 -16.5475 4.5275 -15.1875 4.1875 C-15.1875 3.5275 -15.1875 2.8675 -15.1875 2.1875 C-9.99804056 0.07327578 -5.5015986 -0.08477727 0 0 Z " fill="#1B1B1B" transform="translate(711.1875,265.8125)"/>
<path d="M0 0 C-1.63412443 1.70840281 -2.86906094 2.93453047 -5 4 C-5 4.99 -5 5.98 -5 7 C-5.99 7.33 -6.98 7.66 -8 8 C-9.32 6.68 -10.64 5.36 -12 4 C-4.75 -1.69642857 -4.75 -1.69642857 0 0 Z " fill="#F1F0EF" transform="translate(976,631)"/>
<path d="M0 0 C0.33 0.66 0.66 1.32 1 2 C0.525625 2.763125 0.05125 3.52625 -0.4375 4.3125 C-2.12749356 7.21928892 -2.28205672 8.70933821 -2 12 C-3.11375 12.474375 -4.2275 12.94875 -5.375 13.4375 C-7.26710994 14.25306463 -9.15712709 15.07856355 -11 16 C-9.80523076 13.17599997 -8.46318334 11.37153171 -6.4375 9 C-4.19951952 6.24556248 -3.69643336 5.25002236 -3 2 C-2.01 1.34 -1.02 0.68 0 0 Z " fill="#EEECED" transform="translate(2040,464)"/>
<path d="M0 0 C0.82638376 2.89234315 1 4.88742431 1 8 C0.34 8 -0.32 8 -1 8 C-1.4021875 9.2065625 -1.4021875 9.2065625 -1.8125 10.4375 C-2.4003125 11.7059375 -2.4003125 11.7059375 -3 13 C-3.99 13.33 -4.98 13.66 -6 14 C-4.45941767 8.98491285 -2.97068161 4.3852919 0 0 Z " fill="#E9E8E8" transform="translate(909,679)"/>
<path d="M0 0 C0 0.99 0 1.98 0 3 C-0.66 3 -1.32 3 -2 3 C-3.00217064 6.58327753 -3.00217064 6.58327753 -2 10 C-4.31 10.66 -6.62 11.32 -9 12 C-9.66 11.34 -10.32 10.68 -11 10 C-9.73232923 8.70522938 -8.46073776 7.41429661 -7.1875 6.125 C-6.47980469 5.40570313 -5.77210938 4.68640625 -5.04296875 3.9453125 C-3 2 -3 2 0 0 Z " fill="#F1F1F0" transform="translate(944,468)"/>
<path d="M0 0 C0.99 0.33 1.98 0.66 3 1 C3 1.66 3 2.32 3 3 C3.7425 3.7115625 3.7425 3.7115625 4.5 4.4375 C6 6 6 6 6 9 C6.66 9.33 7.32 9.66 8 10 C7.01 10.33 6.02 10.66 5 11 C3.96409662 9.93106782 2.94666058 8.84421512 1.9375 7.75 C1.36902344 7.14671875 0.80054688 6.5434375 0.21484375 5.921875 C-1 4 -1 4 -0.68359375 1.765625 C-0.45800781 1.18296875 -0.23242188 0.6003125 0 0 Z " fill="#F7F6F4" transform="translate(1108,790)"/>
<path d="M0 0 C2.475 0.495 2.475 0.495 5 1 C5 1.66 5 2.32 5 3 C5.99 3.33 6.98 3.66 8 4 C8.33 4.99 8.66 5.98 9 7 C8.01 7.66 7.02 8.32 6 9 C4.99406757 7.8803014 3.9954151 6.7540588 3 5.625 C2.443125 4.99851562 1.88625 4.37203125 1.3125 3.7265625 C0 2 0 2 0 0 Z " fill="#EBEAE9" transform="translate(920,556)"/>
<path d="M0 0 C1.32 0.33 2.64 0.66 4 1 C2.88333826 4.34998521 2.25305075 4.79340222 -0.5625 6.6875 C-1.20316406 7.12449219 -1.84382812 7.56148438 -2.50390625 8.01171875 C-2.99761719 8.33785156 -3.49132812 8.66398437 -4 9 C-4.33 8.34 -4.66 7.68 -5 7 C-4.0625 4.875 -4.0625 4.875 -3 3 C-2.34 3 -1.68 3 -1 3 C-0.67 2.01 -0.34 1.02 0 0 Z " fill="#F0EFEE" transform="translate(1022,466)"/>
<path d="M0 0 C0.66 0.33 1.32 0.66 2 1 C0.72200196 3.85091869 -0.37896673 6.22144171 -3 8 C-6.1875 7.6875 -6.1875 7.6875 -9 7 C-9 6.34 -9 5.68 -9 5 C-7.54735962 4.1361871 -6.0876837 3.28419546 -4.625 2.4375 C-3.40683594 1.72400391 -3.40683594 1.72400391 -2.1640625 0.99609375 C-1.44992187 0.66738281 -0.73578125 0.33867188 0 0 Z " fill="#EEEEEE" transform="translate(1488,752)"/>
<path d="M0 0 C-0.75 6.625 -0.75 6.625 -3 10 C-4.625 8.3125 -4.625 8.3125 -6 6 C-5.3125 3.3125 -5.3125 3.3125 -4 1 C-2 0 -2 0 0 0 Z " fill="#F2F2F2" transform="translate(2535,765)"/>
<path d="M0 0 C0 0.99 0 1.98 0 3 C-0.99 3.495 -0.99 3.495 -2 4 C-1.34 2.68 -0.68 1.36 0 0 Z M-4 5 C-3.01 5.99 -2.02 6.98 -1 8 C-1.33 8.99 -1.66 9.98 -2 11 C-2.5775 10.773125 -3.155 10.54625 -3.75 10.3125 C-6.12172477 9.73494807 -6.12172477 9.73494807 -8.25 11.4375 C-9.11625 12.2109375 -9.11625 12.2109375 -10 13 C-8.55746343 9.63408134 -6.66735273 7.48952921 -4 5 Z " fill="#E4E3E4" transform="translate(432,365)"/>
<path d="M0 0 C0.33 1.32 0.66 2.64 1 4 C1.33 4.66 1.66 5.32 2 6 C1.67 6.66 1.34 7.32 1 8 C-1.32156597 8.40729228 -3.6568787 8.74438677 -6 9 C-4.02 6.03 -2.04 3.06 0 0 Z " fill="#F0EFEE" transform="translate(916,669)"/>
<path d="M0 0 C-0.66 0 -1.32 0 -2 0 C-2 0.66 -2 1.32 -2 2 C-2.598125 2.12375 -3.19625 2.2475 -3.8125 2.375 C-6.26231348 2.95475985 -6.26231348 2.95475985 -9 5 C-11.6875 4.625 -11.6875 4.625 -14 4 C-4.81927711 -2.12048193 -4.81927711 -2.12048193 0 0 Z " fill="#E0DEDF" transform="translate(2083,449)"/>
<path d="M0 0 C1.04449911 3.13349732 0.93423645 3.98968256 0 7 C-0.5775 6.7525 -1.155 6.505 -1.75 6.25 C-2.4925 6.1675 -3.235 6.085 -4 6 C-6.27144074 7.85432087 -6.27144074 7.85432087 -8 10 C-8.66 9.67 -9.32 9.34 -10 9 C-6.7 6.03 -3.4 3.06 0 0 Z " fill="#EAE9E8" transform="translate(931,654)"/>
<path d="M0 0 C0.99 0 1.98 0 3 0 C1.9802693 3.77300358 1.34127338 4.80206144 -2.125 6.8125 C-3.07375 7.204375 -4.0225 7.59625 -5 8 C-3.63029745 5.04987143 -2.17390875 2.4347778 0 0 Z M-6 8 C-5.67 8.66 -5.34 9.32 -5 10 C-5.66 9.67 -6.32 9.34 -7 9 C-6.67 8.67 -6.34 8.34 -6 8 Z " fill="#F0EFEE" transform="translate(930,481)"/>
<path d="M0 0 C0 3 0 3 -1 5 C-1.66 5 -2.32 5 -3 5 C-3.33 5.99 -3.66 6.98 -4 8 C-6.0625 9.1875 -6.0625 9.1875 -8 10 C-6.75587233 6.55472339 -5.45185936 3.74608248 -3 1 C-2.01 0.67 -1.02 0.34 0 0 Z " fill="#E7E7E7" transform="translate(1848,474)"/>
<path d="M0 0 C2.4375 0.375 2.4375 0.375 5 1 C5.33 1.66 5.66 2.32 6 3 C5.67 3.33 5.34 3.66 5 4 C5.33 4.99 5.66 5.98 6 7 C5.34 7.66 4.68 8.32 4 9 C0 2.25 0 2.25 0 0 Z " fill="#F2F1EF" transform="translate(1102,784)"/>
<path d="M0 0 C0.09978121 3.49234244 -0.22157062 6.59437148 -1 10 C-2.99097846 7.01353231 -3.94124926 4.40312738 -5 1 C-3 0 -3 0 0 0 Z " fill="#ECECEC" transform="translate(2390,619)"/>
<path d="M0 0 C-4.75 4.875 -4.75 4.875 -7 6 C-6.625 3.0625 -6.625 3.0625 -6 0 C-3.50907189 -1.24546405 -2.58919267 -0.7767578 0 0 Z " fill="#E8E6E7" transform="translate(881,578)"/>
<path d="M0 0 C1 2 1 2 0.375 4.9375 C-1.22279992 8.49623618 -2.45062331 9.49151491 -6 11 C-6.66 10.67 -7.32 10.34 -8 10 C-7.59007812 9.52949219 -7.18015625 9.05898438 -6.7578125 8.57421875 C-6.21898437 7.95160156 -5.68015625 7.32898438 -5.125 6.6875 C-4.59132813 6.07261719 -4.05765625 5.45773437 -3.5078125 4.82421875 C-1.8359553 2.86501788 -1.8359553 2.86501788 0 0 Z " fill="#E6E6E6" transform="translate(1831,501)"/>
<path d="M0 0 C0.33 0.66 0.66 1.32 1 2 C1.99 2.33 2.98 2.66 4 3 C1.64046906 5.35953094 0.22104383 5.49141413 -3 6 C-3.33 4.68 -3.66 3.36 -4 2 C-2.68 1.34 -1.36 0.68 0 0 Z " fill="#F3F2F0" transform="translate(964,456)"/>
<path d="M0 0 C2.96404505 2.80804268 5.44499019 5.18315774 7 9 C4 9 4 9 1 8 C1.66 7.01 2.32 6.02 3 5 C2.34 5 1.68 5 1 5 C0.67 3.35 0.34 1.7 0 0 Z " fill="#EAE9E9" transform="translate(547,732)"/>
<path d="M0 0 C1.65 0.33 3.3 0.66 5 1 C5 1.66 5 2.32 5 3 C2.35541621 4.32229189 0.32238699 4.09677194 -2.625 4.0625 C-3.62789062 4.05347656 -4.63078125 4.04445313 -5.6640625 4.03515625 C-6.43492187 4.02355469 -7.20578125 4.01195312 -8 4 C-8 3.67 -8 3.34 -8 3 C-5.36 3 -2.72 3 0 3 C0 2.01 0 1.02 0 0 Z " fill="#CBC9CA" transform="translate(826,779)"/>
<path d="M0 0 C0.66 0 1.32 0 2 0 C3.59138085 4.17737474 4.21278058 7.53160785 4 12 C2.5 10.8125 2.5 10.8125 1 9 C0.875 6.5625 0.875 6.5625 1 4 C0.70955086 2.65667272 0.39044206 1.31774196 0 0 Z " fill="#DEDEDE" transform="translate(2786,726)"/>
<path d="M0 0 C1.20628008 2.33214148 2.1654738 4.49642139 3 7 C0 7 0 7 -2.1875 5 C-2.785625 4.34 -3.38375 3.68 -4 3 C-2.68 3 -1.36 3 0 3 C0 2.01 0 1.02 0 0 Z " fill="#E7E6E6" transform="translate(1118,798)"/>
<path d="M0 0 C5.75 -0.125 5.75 -0.125 8 1 C8 1.66 8 2.32 8 3 C6.35 3.66 4.7 4.32 3 5 C3 4.34 3 3.68 3 3 C2.34 2.67 1.68 2.34 1 2 C0.67 1.34 0.34 0.68 0 0 Z " fill="#F4F2F3" transform="translate(2307,793)"/>
<path d="M0 0 C3.465 1.485 3.465 1.485 7 3 C7 3.66 7 4.32 7 5 C2.44615385 5.36923077 2.44615385 5.36923077 0.1875 3.5 C-0.204375 3.005 -0.59625 2.51 -1 2 C-0.67 1.34 -0.34 0.68 0 0 Z " fill="#EEEDEB" transform="translate(1129,448)"/>
<path d="M0 0 C-1.485 2.475 -1.485 2.475 -3 5 C-4.32 4.34 -5.64 3.68 -7 3 C-7 2.34 -7 1.68 -7 1 C-3.375 -1.125 -3.375 -1.125 0 0 Z " fill="#EAEAEA" transform="translate(977,449)"/>
<path d="M0 0 C0.33 0.66 0.66 1.32 1 2 C1.99 2.33 2.98 2.66 4 3 C0.25 6 0.25 6 -2 6 C-1.125 1.125 -1.125 1.125 0 0 Z " fill="#EFEDEE" transform="translate(2152,786)"/>
<path d="M0 0 C1.9451 2.91765 2.45276317 4.62537285 3 8 C1.68 8 0.36 8 -1 8 C-0.67 5.36 -0.34 2.72 0 0 Z " fill="#EAE8E9" transform="translate(2274,498)"/>
<path d="M0 0 C0.763125 0.20625 1.52625 0.4125 2.3125 0.625 C-0.07323379 2.51713369 -1.75925348 3.64891783 -4.6875 4.625 C-5.0175 3.635 -5.3475 2.645 -5.6875 1.625 C-2.6875 -0.375 -2.6875 -0.375 0 0 Z " fill="#E7E6E4" transform="translate(1214.6875,795.375)"/>
<path d="M0 0 C0.66 0 1.32 0 2 0 C2 0.66 2 1.32 2 2 C2.66 2.66 3.32 3.32 4 4 C2.35 4.33 0.7 4.66 -1 5 C-1 5.66 -1 6.32 -1 7 C-1.66 6.67 -2.32 6.34 -3 6 C-2.01 4.02 -1.02 2.04 0 0 Z " fill="#EFEEEE" transform="translate(2000,690)"/>
<path d="M0 0 C0.66 1.32 1.32 2.64 2 4 C0.02 4.99 0.02 4.99 -2 6 C-2.99 5.34 -3.98 4.68 -5 4 C-3.35 2.68 -1.7 1.36 0 0 Z " fill="#EAE8E9" transform="translate(2037,648)"/>
<path d="M0 0 C0.99 0.33 1.98 0.66 3 1 C3 1.66 3 2.32 3 3 C1.03852126 4.38938077 -0.96166576 5.7260411 -3 7 C-2.38722388 4.03824877 -1.74627478 2.61941217 0 0 Z " fill="#EAE8E9" transform="translate(2124,645)"/>
<path d="M0 0 C1.98 0.99 1.98 0.99 4 2 C4 4.31 4 6.62 4 9 C2.00902154 6.01353231 1.05875074 3.40312738 0 0 Z " fill="#EDEBEC" transform="translate(727,603)"/>
<path d="M0 0 C-2.55068845 2.35448165 -3.71017358 2.98327924 -7.25 3.1875 C-8.1575 3.125625 -9.065 3.06375 -10 3 C-4.375 -1.3125 -4.375 -1.3125 0 0 Z " fill="#434242" transform="translate(691,813)"/>
<path d="M0 0 C1.65 0 3.3 0 5 0 C5 0.99 5 1.98 5 3 C5.66 3.33 6.32 3.66 7 4 C6.01 4.33 5.02 4.66 4 5 C2.68 3.35 1.36 1.7 0 0 Z " fill="#DCDBD9" transform="translate(1109,796)"/>
<path d="M0 0 C1.134375 0.020625 2.26875 0.04125 3.4375 0.0625 C-1.3125 4.0625 -1.3125 4.0625 -3.5625 4.0625 C-3.8925 3.0725 -4.2225 2.0825 -4.5625 1.0625 C-3.5625 0.0625 -3.5625 0.0625 0 0 Z " fill="#E5E5E3" transform="translate(1056.5625,787.9375)"/>
<path d="M0 0 C3 1 3 1 4 3 C3.01 3.99 2.02 4.98 1 6 C-0.0625 4.125 -0.0625 4.125 -1 2 C-0.67 1.34 -0.34 0.68 0 0 Z " fill="#111111" transform="translate(1039,641)"/>
<path d="M0 0 C0 0.99 0 1.98 0 3 C-2.5 4.6875 -2.5 4.6875 -5 6 C-5 3 -5 3 -3.625 1.3125 C-2 0 -2 0 0 0 Z " fill="#F0F0F0" transform="translate(1852,505)"/>
</svg>
