<?xml version="1.0" encoding="UTF-8"?>
<svg version="1.1" xmlns="http://www.w3.org/2000/svg" width="1024" height="1024">
<path d="M0 0 C337.92 0 675.84 0 1024 0 C1024 337.92 1024 675.84 1024 1024 C686.08 1024 348.16 1024 0 1024 C0 686.08 0 348.16 0 0 Z " fill="#090909" transform="translate(0,0)"/>
<path d="M0 0 C0.71438232 0.23219238 1.42876465 0.46438477 2.16479492 0.70361328 C4.23564985 1.43013476 6.23190173 2.26385392 8.25 3.125 C9.00603516 3.3715332 9.76207031 3.61806641 10.54101562 3.87207031 C13.1819721 4.99778091 14.51894052 5.8144709 16.25 8.125 C17.00997282 12.74805219 16.7769905 17.20928688 16.421875 21.85302734 C16.25142607 24.10614919 16.13342437 26.35611188 16.03125 28.61328125 C15.81951795 33.12063702 15.53907368 37.62204698 15.25 42.125 C15.15319784 43.69007652 15.05684178 45.2551807 14.9609375 46.8203125 C14.72906963 50.5888785 14.4912736 54.35702498 14.25 58.125 C11.94 58.125 9.63 58.125 7.25 58.125 C7.07460693 57.59245605 6.89921387 57.05991211 6.71850586 56.51123047 C-1.96910435 29.23194673 -1.96910435 29.23194673 -21.72265625 9.6328125 C-33.18132018 3.92565859 -44.4892972 2.26142699 -56.75 6.125 C-70.89254345 11.15407734 -77.77984615 23.03269983 -84.02734375 35.71875 C-90.36837756 50.07580769 -90.9862798 66.49506571 -91 81.9375 C-91.00067474 82.62108582 -91.00134949 83.30467163 -91.00204468 84.00897217 C-90.96390573 108.42146078 -87.39348244 130.49441881 -70.02734375 148.9296875 C-61.7390425 156.9194393 -51.90224324 159.20136168 -40.5625 159.5625 C-34.70895493 159.42376766 -29.43115042 158.52091248 -23.76171875 157.09765625 C-22.59835999 156.81444519 -22.59835999 156.81444519 -21.41149902 156.5255127 C-19.52282624 156.06480754 -17.63618721 155.59577799 -15.75 155.125 C-15.79164212 147.81053917 -15.86394227 140.49684089 -15.95751953 133.18286133 C-15.98573752 130.69497565 -16.00694787 128.20700018 -16.02099609 125.71899414 C-16.04241321 122.14162193 -16.0890602 118.56533027 -16.140625 114.98828125 C-16.14185364 113.87665115 -16.14308228 112.76502106 -16.14434814 111.6197052 C-16.23277156 105.50917247 -16.23277156 105.50917247 -18.59960938 99.98242188 C-21.24142752 97.70052446 -23.74167872 96.55207875 -27 95.3125 C-28.07765625 94.89355469 -29.1553125 94.47460938 -30.265625 94.04296875 C-31.08546875 93.74003906 -31.9053125 93.43710937 -32.75 93.125 C-32.75 91.475 -32.75 89.825 -32.75 88.125 C-11.3 88.125 10.15 88.125 32.25 88.125 C31.25 93.125 31.25 93.125 29.54296875 94.49609375 C28.84816406 94.84800781 28.15335938 95.19992187 27.4375 95.5625 C23.4993835 97.56480689 20.9672178 100.04614502 19.25 104.125 C18.64151846 108.18190243 18.64508598 112.20785815 18.640625 116.3046875 C18.62408875 117.4725882 18.60755249 118.64048889 18.59051514 119.84378052 C18.54205147 123.56257394 18.52066668 127.28095843 18.5 131 C18.47183913 133.52606222 18.44191155 136.05210541 18.41015625 138.578125 C18.33629265 144.76034248 18.28464045 150.94244502 18.25 157.125 C8.13047109 160.64031644 -1.83238226 163.91553092 -12.375 165.9375 C-13.86966797 166.24204102 -13.86966797 166.24204102 -15.39453125 166.55273438 C-43.90028451 172.25765065 -73.84133158 170.51877073 -99.0078125 154.96875 C-117.16563473 142.76007181 -129.14784808 125.64316981 -133.75 104.125 C-137.96714285 80.31571431 -133.69683881 55.59623689 -120.75 35.125 C-106.06524744 14.6090879 -85.85790723 2.60779858 -61.75 -3.875 C-60.40421875 -4.24625 -60.40421875 -4.24625 -59.03125 -4.625 C-40.09853648 -8.93878283 -18.24264107 -5.93575043 0 0 Z " fill="#FBF9F9" transform="translate(250.75,406.875)"/>
<path d="M0 0 C8.32123662 7.40958599 10.25713141 17.33542331 11 28 C11.15393773 32.78751506 11.18380436 37.5735705 11.2109375 42.36328125 C11.22393284 43.72707399 11.23775232 45.09085909 11.25234985 46.45463562 C11.31338839 52.19731149 11.36814705 57.93995079 11.40136719 63.68286133 C11.42233472 67.2153485 11.45762683 70.74744886 11.50212479 74.27971458 C11.5230648 76.26543878 11.52832189 78.25130847 11.53329468 80.23713684 C11.54986115 81.44576889 11.56642761 82.65440094 11.58349609 83.8996582 C11.59158295 84.95981644 11.5996698 86.01997467 11.60800171 87.11225891 C12.06098203 90.44923744 12.95124706 92.34016282 15 95 C20.31018843 96.53178512 23.95171546 95.75144566 29 94 C29 96.64 29 99.28 29 102 C26.33901948 103.46958697 23.67197381 104.92564316 21 106.375 C20.25621094 106.7875 19.51242187 107.2 18.74609375 107.625 C11.71549858 111.41540783 4.11681041 114.27415047 -4 113 C-9.28193325 111.2168656 -12.99402157 108.78729898 -16 104 C-17.11027309 101.69293903 -18.06374932 99.38743924 -19 97 C-19.76570313 97.52787109 -19.76570313 97.52787109 -20.546875 98.06640625 C-24.9973298 101.08861226 -29.51330207 103.97949633 -34.125 106.75 C-35.07632813 107.32234375 -36.02765625 107.8946875 -37.0078125 108.484375 C-45.74303 112.90900214 -56.56148705 113.79310918 -66.015625 111.16015625 C-72.69801276 108.11618514 -77.85163537 103.38880203 -81.09375 96.765625 C-84.60830138 87.32840371 -83.04187742 79.95949495 -79 71 C-74.03384686 60.54161818 -62.08571972 55.02737848 -51.75 51.25 C-48.51600478 50.11381942 -45.26573835 49.04114585 -42 48 C-41.19256348 47.7417041 -40.38512695 47.4834082 -39.55322266 47.21728516 C-26.19171484 43 -26.19171484 43 -21 43 C-21.08215994 39.22835932 -21.19487406 35.45818803 -21.3125 31.6875 C-21.34633789 30.1087207 -21.34633789 30.1087207 -21.38085938 28.49804688 C-21.65885007 20.28468556 -22.54518741 12.20825016 -26.75 5 C-29.64675235 2.42510902 -32.31851967 1.18333296 -36 0 C-39.98990945 0.51309776 -41.94837717 2.47745633 -44.4765625 5.5703125 C-49.60076727 13.74276215 -52.19223749 23.77442601 -52.0625 33.375 C-52.05347656 34.24898438 -52.04445313 35.12296875 -52.03515625 36.0234375 C-52.02355469 36.67570312 -52.01195312 37.32796875 -52 38 C-59.11101089 38.33861957 -66.1750326 38.31006794 -71.828125 33.41796875 C-75.15518492 29.71136559 -77.95791674 26.12017295 -78.02734375 20.97265625 C-77.52315015 13.40975221 -74.99714835 7.62102782 -69.5625 2.3125 C-53.148904 -11.05024173 -16.78572945 -14.05852856 0 0 Z " fill="#FAF9F8" transform="translate(369,463)"/>
<path d="M0 0 C1.00740234 -0.01611328 2.01480469 -0.03222656 3.05273438 -0.04882812 C14.22759694 -0.05601453 24.25488953 2.2788406 32.74609375 9.8046875 C40.87850572 18.28186507 41.64219231 29.02791273 41.57892036 40.22528839 C41.56611355 42.50523347 41.57773552 44.78399899 41.59495544 47.06390381 C41.621458 51.07905259 41.62725828 55.09390408 41.62585449 59.10913086 C41.62361203 65.54757073 41.63791488 71.98564533 41.68144035 78.42394257 C41.69121397 80.65915099 41.68260036 82.89377175 41.67274475 85.12896729 C41.67889203 86.50818254 41.68580479 87.88739466 41.69360352 89.26660156 C41.69264175 90.46142151 41.69167999 91.65624146 41.69068909 92.88726807 C42.14261616 97.05055376 43.04744581 99.64001718 45.0625 103.3125 C50.43502634 104.80976144 53.86680236 104.5206715 59.0625 102.3125 C59.5575 105.7775 59.5575 105.7775 60.0625 109.3125 C50.05374159 116.50397827 39.68743083 122.44660396 27.0625 121.3125 C20.97750912 119.55919754 17.53097949 116.44545097 14.0625 111.3125 C13.03474187 109.32662155 12.02937642 107.32872171 11.0625 105.3125 C10.32386719 105.90417969 9.58523438 106.49585938 8.82421875 107.10546875 C-3.81236717 116.94819705 -15.69791243 122.12729731 -31.9375 120.3125 C-39.39072301 118.25444874 -44.67638094 113.66866927 -48.9375 107.3125 C-52.45681357 101.06571841 -53.02506174 94.17933881 -51.46875 87.21484375 C-47.55697139 75.5027923 -39.590958 68.28770034 -28.81640625 62.69140625 C-21.90957309 59.55933232 -14.80622453 57.21519404 -7.5625 55 C-6.73049072 54.74524902 -5.89848145 54.49049805 -5.04125977 54.22802734 C0.00008763 52.7478599 4.83223504 51.8235029 10.0625 51.3125 C10.71796991 30.49928105 10.71796991 30.49928105 2.625 12.125 C-1.73597064 8.98281397 -1.73597064 8.98281397 -6.90625 8.6015625 C-10.77109062 9.95425672 -12.77489791 12.95214905 -14.9375 16.3125 C-18.63735267 24.36512052 -21.09763347 31.74035427 -21 40.625 C-20.99097656 41.69363281 -20.98195313 42.76226562 -20.97265625 43.86328125 C-20.96105469 44.67152344 -20.94945312 45.47976563 -20.9375 46.3125 C-28.36534254 46.88144113 -34.38410621 46.00928624 -40.9375 42.3125 C-45.10073258 38.25334824 -46.69631651 34.3453323 -47.375 28.625 C-47.14706185 21.51869308 -43.40989236 15.33517846 -38.375 10.5 C-27.36395172 1.70775052 -13.61841388 -0.04339839 0 0 Z " fill="#FBF9F9" transform="translate(688.9375,454.6875)"/>
<path d="M0 0 C0.00586624 1.09501328 0.01173248 2.19002655 0.01777649 3.31822205 C0.07510431 13.66101078 0.1479184 24.0035913 0.23571491 34.34616756 C0.28035421 39.66281034 0.31962454 44.97937763 0.34643555 50.29614258 C0.37253273 55.43155466 0.41298052 60.56667523 0.46318626 65.7019062 C0.47981164 67.65656457 0.49135278 69.61127331 0.49761391 71.56599236 C0.50730221 74.31375226 0.53541748 77.06077362 0.56762695 79.80834961 C0.56619186 80.60820786 0.56475677 81.4080661 0.5632782 82.23216248 C0.67248347 88.86236993 1.61432357 95.55154261 6.375 100.4375 C12.54587082 104.11063739 18.07496057 105.146191 25.1484375 103.5 C29.90044447 101.89779075 33.50062536 99.66213625 37 96 C40.40529471 89.03002458 40.43777576 82.6630427 40.3984375 74.99609375 C40.40130768 73.75884048 40.40417786 72.52158722 40.40713501 71.24684143 C40.40916975 68.64054911 40.40368135 66.03424132 40.39111328 63.42797852 C40.37503868 59.44708027 40.3909903 55.46719519 40.41015625 51.48632812 C40.40817398 48.94791444 40.40433065 46.40950137 40.3984375 43.87109375 C40.40451019 42.68551376 40.41058289 41.49993378 40.4168396 40.27842712 C40.36443275 34.10013982 40.08578743 29.41700712 37 24 C33.81909789 21.50071977 29.93611516 21.45416713 26 21 C25.67 19.35 25.34 17.7 25 16 C26.05388916 15.65219482 27.10777832 15.30438965 28.19360352 14.94604492 C32.12887969 13.6464152 36.06280015 12.34272275 39.99633789 11.0378418 C41.6942167 10.47522055 43.39245405 9.91368007 45.09106445 9.35327148 C47.54214575 8.54439309 49.99188213 7.7315488 52.44140625 6.91796875 C53.19273331 6.67096725 53.94406036 6.42396576 54.71815491 6.16947937 C58.14036806 5.02898091 61.44460796 3.82700312 64.72241211 2.31762695 C67.89437409 1.0424628 69.66665012 0.88039697 73 1 C73.00808685 2.20634094 73.01617371 3.41268188 73.02450562 4.65557861 C73.10193623 16.01529146 73.18966778 27.37488408 73.28752708 38.73443985 C73.33750724 44.57472603 73.38383724 50.41499396 73.421875 56.25537109 C73.45870591 61.88995342 73.50506009 67.52438377 73.55806351 73.15883636 C73.57661909 75.31022225 73.59172272 77.46164073 73.60334396 79.61307526 C73.62018633 82.62274289 73.64921685 85.63206157 73.68115234 88.64160156 C73.68331253 89.5342421 73.68547272 90.42688263 73.68769836 91.34657288 C73.69886185 92.16824448 73.71002533 92.98991608 73.7215271 93.83648682 C73.72705786 94.548111 73.73258862 95.25973518 73.73828697 95.99292374 C74.04888947 98.37493316 74.72652713 99.96832259 76 102 C78.39459647 103.12891757 78.39459647 103.12891757 81.125 103.75 C82.03507813 103.99234375 82.94515625 104.2346875 83.8828125 104.484375 C84.58148437 104.65453125 85.28015625 104.8246875 86 105 C86 106.65 86 108.3 86 110 C82.18400376 111.44303991 78.36122555 112.86626506 74.53149414 114.27246094 C73.23299844 114.75225228 71.93638425 115.23717108 70.6418457 115.72753906 C56.90207886 120.92436326 56.90207886 120.92436326 49 120 C44.39058215 116.76360024 43.01639958 113.45159774 42 108 C41.863 105.30724139 41.90526984 102.69980958 42 100 C41.34 100 40.68 100 40 100 C39.731875 100.59039063 39.46375 101.18078125 39.1875 101.7890625 C34.31267115 110.86522411 23.98679062 116.36695666 14.50683594 119.39794922 C10.03891671 120.47098085 5.63709682 120.47242059 1.0625 120.4375 C0.13759766 120.45748047 -0.78730469 120.47746094 -1.74023438 120.49804688 C-9.93970402 120.49230093 -16.4292251 118.29068579 -23.3125 113.875 C-30.00612182 106.71438131 -32.10591404 98.75228248 -32.15771484 89.16186523 C-32.16533592 88.16091324 -32.16533592 88.16091324 -32.17311096 87.13973999 C-32.18376845 85.69820379 -32.19240654 84.25665153 -32.19923019 82.81509209 C-32.21107251 80.53257116 -32.23053589 78.25023492 -32.25234985 75.9677887 C-32.31380718 69.48094817 -32.36807634 62.99413143 -32.40136719 56.50708008 C-32.42230664 52.53299736 -32.45759426 48.55926016 -32.50212479 44.58537483 C-32.51628045 43.07316207 -32.52500626 41.56088828 -32.52817917 40.04861259 C-32.53308603 37.93495305 -32.55623301 35.82221298 -32.58349609 33.70874023 C-32.59158295 32.50692612 -32.5996698 31.305112 -32.60800171 30.06687927 C-33.03324438 26.73990574 -33.65192562 25.3530671 -36 23 C-38.4829419 22.09438854 -38.4829419 22.09438854 -41.1875 21.75 C-42.08855469 21.60046875 -42.98960937 21.4509375 -43.91796875 21.296875 C-44.60503906 21.19890625 -45.29210937 21.1009375 -46 21 C-46 19.35 -46 17.7 -46 16 C-37.17335432 12.25219974 -28.10230026 9.30162371 -19 6.3125 C-16.73349273 5.56622276 -14.4672939 4.81903924 -12.20166016 4.07011414 C-10.80214592 3.60767906 -9.40210005 3.14684909 -8.00146484 2.68782043 C-5.54201235 1.87652518 -2.52114167 0 0 0 Z " fill="#FBFAFA" transform="translate(445,455)"/>
<path d="M0 0 C20.13 0 40.26 0 61 0 C61 1.32 61 2.64 61 4 C60.43410156 4.26554687 59.86820313 4.53109375 59.28515625 4.8046875 C58.18494141 5.33449219 58.18494141 5.33449219 57.0625 5.875 C56.33160156 6.22304688 55.60070312 6.57109375 54.84765625 6.9296875 C52.83667541 7.8684977 52.83667541 7.8684977 52 10 C51.40008264 16.09573299 52.30692581 21.11990436 54.515625 26.76953125 C54.78272278 27.48808792 55.04982056 28.20664459 55.32501221 28.94697571 C55.90220063 30.49427322 56.48604066 32.03910301 57.07592773 33.581604 C58.02147693 36.05620741 58.94749627 38.53739766 59.86914062 41.02099609 C61.81286541 46.24944732 63.77975339 51.46899595 65.75 56.6875 C66.75986056 59.36442812 67.76918383 62.04155447 68.77716064 64.7191925 C69.39706791 66.36577301 70.01805185 68.01194874 70.64031982 69.65763855 C72.1803432 73.74638901 73.65162151 77.84277539 75 82 C75.21440231 81.44004837 75.42880463 80.88009674 75.64970398 80.30317688 C77.9049437 74.41325509 80.16032 68.52338562 82.41577148 62.63354492 C83.25467288 60.44280281 84.0935408 58.25204788 84.93237305 56.0612793 C85.74720516 53.93320376 86.56219044 51.80518686 87.37733459 49.67723083 C88.1717967 47.60197092 88.96529295 45.52634099 89.75779724 43.45033264 C91.37365447 39.22111027 92.99190305 34.99452144 94.67797852 30.79272461 C95.35558228 29.09321655 95.35558228 29.09321655 96.046875 27.359375 C96.42038086 26.4425293 96.79388672 25.52568359 97.17871094 24.58105469 C98.61386237 20.07082254 98.85040146 15.64886132 98 11 C95.39097261 6.76033049 90.4306528 5.02175419 86 3 C86 2.01 86 1.02 86 0 C100.52 0 115.04 0 130 0 C130 1.32 130 2.64 130 4 C129.34773437 4.27972656 128.69546875 4.55945313 128.0234375 4.84765625 C127.14945313 5.24855469 126.27546875 5.64945312 125.375 6.0625 C124.51648438 6.44535156 123.65796875 6.82820313 122.7734375 7.22265625 C113.76766443 12.99396153 110.8551913 22.65519376 107.0625 32.125 C106.41036231 33.72427832 105.75701871 35.32306538 105.10253906 36.92138672 C103.39409325 41.10324248 101.70190964 45.29146759 100.01470947 49.48193359 C98.37418099 53.55300987 96.72379608 57.62008389 95.07421875 61.6875 C93.17281647 66.37784392 91.27241187 71.06857974 89.37670898 75.76123047 C85.52622643 85.28603807 81.62045623 94.78504863 77.625 104.25 C77.16641602 105.33941895 76.70783203 106.42883789 76.23535156 107.55126953 C75.81995117 108.52950684 75.40455078 109.50774414 74.9765625 110.515625 C74.61643066 111.36415039 74.25629883 112.21267578 73.88525391 113.08691406 C73 115 73 115 72 116 C69.30345146 116.07319621 66.63308542 116.09242537 63.9375 116.0625 C63.17888672 116.05798828 62.42027344 116.05347656 61.63867188 116.04882812 C59.75908129 116.0370068 57.87953101 116.01907078 56 116 C49.71259488 102.02914105 43.68901967 87.96044267 37.83294678 73.80435181 C36.74506497 71.1755749 35.65421314 68.548045 34.56298828 65.9206543 C31.28562529 58.01826975 28.02991354 50.10949945 24.87149048 42.15870667 C23.55266582 38.84453235 22.21783635 35.53692346 20.88122559 32.22988892 C20.26000063 30.6797394 19.64673442 29.12637277 19.04211426 27.56967163 C15.19179855 17.66150244 11.56059029 10.69033204 2 5.3125 C1.34 4.879375 0.68 4.44625 0 4 C0 2.68 0 1.36 0 0 Z " fill="#FAF9F9" transform="translate(733,458)"/>
<path d="M0 0 C4.80885729 4.6195322 6.16596918 8.60903733 6.3125 15.1875 C6.26062881 21.00355722 5.62059034 25.35516371 2 30 C-1.54513403 33.2412654 -5.14911999 33.59818132 -9.8046875 33.3984375 C-15.70851901 32.3269236 -18.58795904 27.2288881 -21.9375 22.75 C-24.5185358 19.47218267 -25.64843739 18.14802636 -29.5625 16.5 C-34.45658277 17.21186658 -36.98078696 19.12671677 -40 23 C-43.31150165 29.37288987 -45.11308285 35.59423743 -45.16113281 42.7590332 C-45.17074036 43.9173616 -45.1803479 45.07569 -45.19024658 46.26911926 C-45.19449646 47.51706772 -45.19874634 48.76501617 -45.203125 50.05078125 C-45.21167511 51.98173897 -45.21167511 51.98173897 -45.22039795 53.95170593 C-45.23088785 56.67605991 -45.23674349 59.40038455 -45.24023438 62.12475586 C-45.24571176 65.60147417 -45.26973156 69.07779943 -45.29820633 72.55439472 C-45.32140536 75.88651551 -45.32328708 79.21858394 -45.328125 82.55078125 C-45.3404718 83.79265701 -45.3528186 85.03453278 -45.36553955 86.31404114 C-45.34648655 93.72792643 -45.28125785 99.62223457 -39.875 105.1875 C-36.09196326 107.57245795 -32.13168637 109.30771887 -28 111 C-28 112.65 -28 114.3 -28 116 C-49.45 116 -70.9 116 -93 116 C-93 114.02 -93 112.04 -93 110 C-92.31292969 109.68546875 -91.62585938 109.3709375 -90.91796875 109.046875 C-90.01691406 108.61890625 -89.11585938 108.1909375 -88.1875 107.75 C-87.29417969 107.33234375 -86.40085937 106.9146875 -85.48046875 106.484375 C-82.77904143 104.86777283 -81.53720512 103.73496431 -80 101 C-79.088567 96.65554357 -78.86413995 92.49609403 -78.83886719 88.06420898 C-78.83390228 87.39836792 -78.82893738 86.73252686 -78.82382202 86.04650879 C-78.80931968 83.86302631 -78.80242097 81.67961629 -78.796875 79.49609375 C-78.79404762 78.74659014 -78.79122025 77.99708652 -78.78830719 77.22487068 C-78.77336829 73.26392392 -78.76410352 69.30301314 -78.75976562 65.34204102 C-78.75426734 61.25762644 -78.73019598 57.17354293 -78.70179367 53.08923244 C-78.68315692 49.93991633 -78.6779613 46.79068015 -78.67642975 43.64131355 C-78.67340853 42.13544962 -78.6653979 40.62958691 -78.65224457 39.12377739 C-78.63515039 37.01772684 -78.63707116 34.91248865 -78.64355469 32.80639648 C-78.63990906 31.60981918 -78.63626343 30.41324188 -78.63250732 29.18040466 C-79.04010499 25.65291795 -79.86921569 23.81456356 -82 21 C-85.44450737 18.70366176 -87.93812283 18.45983515 -92 18 C-92 16.35 -92 14.7 -92 13 C-84.49097035 9.88368679 -76.86943453 7.12911655 -69.18505859 4.48071289 C-67.23739225 3.8081463 -65.29253307 3.1278505 -63.34765625 2.44726562 C-62.10371094 2.01736328 -60.85976563 1.58746094 -59.578125 1.14453125 C-58.45825195 0.75628174 -57.33837891 0.36803223 -56.18457031 -0.03198242 C-53 -1 -53 -1 -47 -2 C-46.34 5.26 -45.68 12.52 -45 20 C-44.030625 18.185 -43.06125 16.37 -42.0625 14.5 C-37.68942454 7.03226832 -31.93709707 0.04857018 -23.3671875 -2.6015625 C-15.48343357 -3.92853098 -6.90743325 -4.40899995 0 0 Z " fill="#FAF9F9" transform="translate(629,458)"/>
<path d="M0 0 C4.92608649 3.51631832 8.25201724 8.74229637 9.375 14.6953125 C9.87425017 21.18556468 8.9007262 26.58391066 4.7578125 31.6875 C0.95244862 35.62352015 -2.05378888 38.40962238 -7.6484375 39.03125 C-18.92849551 39.16271921 -18.92849551 39.16271921 -23.625 34.6953125 C-28.79987338 29.52043912 -31.20007794 25.33750157 -32.0625 17.9453125 C-31.86044329 11.74098297 -29.05479742 6.07699512 -24.65234375 1.76171875 C-16.63320745 -4.48871085 -9.03023511 -4.8179608 0 0 Z " fill="#FAF9F9" transform="translate(883.625,536.3046875)"/>
<path d="M0 0 C0 12.54 0 25.08 0 38 C-13.32352941 44.66176471 -13.32352941 44.66176471 -21 44 C-25.01071637 41.88113097 -27.36600142 40.23048948 -29 36 C-30.17509662 26.55823531 -28.35227044 19.6206971 -22.83203125 12.01171875 C-19.87341125 8.54679623 -16.41422021 6.68738735 -12.375 4.6875 C-11.70726562 4.34138672 -11.03953125 3.99527344 -10.3515625 3.63867188 C-3.25863487 0 -3.25863487 0 0 0 Z " fill="#0B0B0B" transform="translate(699,514)"/>
<path d="M0 0 C0 12.54 0 25.08 0 38 C-13.10769231 44.55384615 -13.10769231 44.55384615 -21 44 C-24.34684149 42.63083757 -25.72482511 41.38904036 -27.8125 38.4375 C-30.40503136 30.93280397 -29.38954729 24.36085641 -26.203125 17.19140625 C-24.55954457 14.1977419 -22.62102897 12.17353622 -20 10 C-18.89011719 9.04480469 -18.89011719 9.04480469 -17.7578125 8.0703125 C-14.73551379 5.80144803 -11.75376034 4.30386442 -8.3125 2.75 C-7.17425781 2.22921875 -6.03601563 1.7084375 -4.86328125 1.171875 C-2 0 -2 0 0 0 Z " fill="#0B0B0B" transform="translate(348,514)"/>
<path d="M0 0 C3.0625 -0.25 3.0625 -0.25 6 0 C7.92146774 1.92146774 7.12016542 4.78718315 7.12442017 7.34362793 C7.12082489 8.25640503 7.11722961 9.16918213 7.11352539 10.10961914 C7.11367142 11.06561508 7.11381744 12.02161102 7.1139679 13.00657654 C7.11326835 16.18279245 7.10547403 19.35895052 7.09765625 22.53515625 C7.09579222 24.73091093 7.09436825 26.92666602 7.09336853 29.12242126 C7.08954219 34.91420633 7.07971091 40.7059665 7.06866455 46.4977417 C7.05845293 52.40278791 7.05387145 58.30783813 7.04882812 64.21289062 C7.03808875 75.80860472 7.02101093 87.40430029 7 99 C6.34 99 5.68 99 5 99 C5 66.99 5 34.98 5 2 C2.69 2.33 0.38 2.66 -2 3 C-1.34 2.01 -0.68 1.02 0 0 Z " fill="#000000" transform="translate(513,454)"/>
<path d="M0 0 C0.33 0 0.66 0 1 0 C1.33 16.5 1.66 33 2 50 C-0.475 50.495 -0.475 50.495 -3 51 C-2.67 50.34 -2.34 49.68 -2 49 C-1.88680743 47.46372549 -1.83337615 45.92283806 -1.81054688 44.38256836 C-1.79382935 43.42495102 -1.77711182 42.46733368 -1.7598877 41.48069763 C-1.74631226 40.44421585 -1.73273682 39.40773407 -1.71875 38.33984375 C-1.70034058 37.27963516 -1.68193115 36.21942657 -1.66296387 35.12709045 C-1.58406616 30.5759619 -1.51639699 26.02468161 -1.44775391 21.47338867 C-1.39616852 18.15796255 -1.33886919 14.84266958 -1.28125 11.52734375 C-1.26767456 10.48883774 -1.25409912 9.45033173 -1.2401123 8.38035583 C-1.22339478 7.42589066 -1.20667725 6.47142548 -1.18945312 5.48803711 C-1.17692505 4.64357529 -1.16439697 3.79911346 -1.15148926 2.92906189 C-1 1 -1 1 0 0 Z " fill="#000000" transform="translate(270,515)"/>
<path d="M0 0 C0 12.54 0 25.08 0 38 C-3.96 39.98 -3.96 39.98 -8 42 C-8.66 41.67 -9.32 41.34 -10 41 C-4.25 37 -4.25 37 -2 37 C-2 25.78 -2 14.56 -2 3 C-3.32 3.33 -4.64 3.66 -6 4 C-2.25 0 -2.25 0 0 0 Z " fill="#010101" transform="translate(348,514)"/>
<path d="M0 0 C0.66 0 1.32 0 2 0 C2 11.55 2 23.1 2 35 C-0.97 36.32 -3.94 37.64 -7 39 C-7 38.34 -7 37.68 -7 37 C-6.02659668 36.45569336 -5.05319336 35.91138672 -4.05029297 35.35058594 C-0.66798537 33.26358347 -0.66798537 33.26358347 -0.22705078 29.51660156 C-0.18631567 28.14183872 -0.17747647 26.76587555 -0.1953125 25.390625 C-0.17475296 24.30041046 -0.17475296 24.30041046 -0.15377808 23.18817139 C-0.11649199 20.87481711 -0.120191 18.56361196 -0.125 16.25 C-0.10687182 14.67835189 -0.08606873 13.10673219 -0.0625 11.53515625 C-0.01066374 7.68974431 0.00443204 3.84574214 0 0 Z " fill="#000000" transform="translate(697,517)"/>
<path d="M0 0 C4.19727935 0.69954656 7.61198472 1.40378243 10.484375 4.70703125 C14.51651946 11.41482712 14.53487725 17.30965382 14 25 C13.34 25 12.68 25 12 25 C11.96261719 24.20335937 11.92523437 23.40671875 11.88671875 22.5859375 C11.46725203 14.34498405 11.46725203 14.34498405 8 7 C5.5609294 4.79857668 5.5609294 4.79857668 3 3 C1.9826127 2.01769502 0.97403883 1.02530403 0 0 Z " fill="#020202" transform="translate(623,454)"/>
<path d="M0 0 C0.69561035 0.12979248 1.3912207 0.25958496 2.10791016 0.39331055 C3.79838624 0.74713605 5.46570538 1.20828896 7.125 1.6875 C7.62 2.6775 7.62 2.6775 8.125 3.6875 C6.90941406 3.53410156 5.69382812 3.38070313 4.44140625 3.22265625 C-1.67193393 2.54339623 -7.79330089 2.34127014 -13.9375 2.125 C-15.08927734 2.08181641 -16.24105469 2.03863281 -17.42773438 1.99414062 C-20.24339491 1.88899148 -23.05912976 1.78684607 -25.875 1.6875 C-22.18816112 -1.99933888 -16.09708393 -1.31317055 -11.06835938 -1.37988281 C-7.31791376 -1.26466431 -3.68311054 -0.69021742 0 0 Z " fill="#010101" transform="translate(701.875,453.3125)"/>
<path d="M0 0 C0.99 0 1.98 0 3 0 C3 0.66 3 1.32 3 2 C1.49377587 2.93469245 -0.05743623 3.79728934 -1.625 4.625 C-7.40932862 7.95611691 -11.02559491 12.05118982 -14 18 C-14.99 17.67 -15.98 17.34 -17 17 C-12.75200223 9.20062146 -9.16266127 4.60838674 -1 1 C-0.67 0.67 -0.34 0.34 0 0 Z " fill="#030303" transform="translate(307,458)"/>
<path d="M0 0 C0.66 0 1.32 0 2 0 C2 6.93 2 13.86 2 21 C-0.31 21.33 -2.62 21.66 -5 22 C-4 20 -4 20 -1 19 C-0.67 12.73 -0.34 6.46 0 0 Z " fill="#000000" transform="translate(346,485)"/>
<path d="M0 0 C0.99 0.495 0.99 0.495 2 1 C2.4140625 3.28515625 2.4140625 3.28515625 2.625 6.0625 C2.69976563 6.98160156 2.77453125 7.90070313 2.8515625 8.84765625 C2.92503906 9.91306641 2.92503906 9.91306641 3 11 C3.66 10.67 4.32 10.34 5 10 C3.81323934 14.10801767 3.10551666 15.89448334 0 19 C0 12.73 0 6.46 0 0 Z " fill="#030303" transform="translate(583,460)"/>
<path d="M0 0 C0.33 0 0.66 0 1 0 C1.90041311 8.02332397 2.11547323 15.92970447 2 24 C1.34 24 0.68 24 0 24 C0 25.65 0 27.3 0 29 C-0.33 29 -0.66 29 -1 29 C-0.67 19.43 -0.34 9.86 0 0 Z " fill="#2E2E2E" transform="translate(266,431)"/>
<path d="M0 0 C0.66 0 1.32 0 2 0 C2.9765625 1.79036458 3.953125 3.58072917 4.9296875 5.37109375 C5.91410024 7.16618315 5.91410024 7.16618315 8 8 C9.53668865 8.22467831 11.07968054 8.40796805 12.625 8.5625 C13.44226563 8.64628906 14.25953125 8.73007812 15.1015625 8.81640625 C15.72804688 8.87699219 16.35453125 8.93757812 17 9 C17 9.66 17 10.32 17 11 C7.0625 11.58455882 7.0625 11.58455882 3 8 C0 2.93103448 0 2.93103448 0 0 Z " fill="#010001" transform="translate(486,566)"/>
<path d="M0 0 C0.66 0 1.32 0 2 0 C3.33203125 1.828125 3.33203125 1.828125 4.8125 4.25 C7.16888186 7.93799815 9.45003656 10.38973276 13 13 C13 13.66 13 14.32 13 15 C10.5625 14.1875 10.5625 14.1875 8 13 C7.67 12.01 7.34 11.02 7 10 C6.34 10 5.68 10 5 10 C3.7109375 8.3203125 3.7109375 8.3203125 2.375 6.125 C1.92898438 5.40570312 1.48296875 4.68640625 1.0234375 3.9453125 C0 2 0 2 0 0 Z " fill="#020202" transform="translate(286,558)"/>
<path d="M0 0 C0.99 0.33 1.98 0.66 3 1 C3 3.64 3 6.28 3 9 C2.01 9.495 2.01 9.495 1 10 C1 7.36 1 4.72 1 2 C0.34 1.67 -0.32 1.34 -1 1 C-0.67 0.67 -0.34 0.34 0 0 Z M-1 10 C-0.34 10.33 0.32 10.66 1 11 C-0.8125 13 -0.8125 13 -3 15 C-3.99 15 -4.98 15 -6 15 C-6 14.34 -6 13.68 -6 13 C-3.625 11.3125 -3.625 11.3125 -1 10 Z " fill="#030303" transform="translate(397,555)"/>
<path d="M0 0 C0.66 0.33 1.32 0.66 2 1 C-0.26237627 3.47266124 -2.57453333 5.063866 -5.5 6.6875 C-6.66015625 7.34298828 -6.66015625 7.34298828 -7.84375 8.01171875 C-10 9 -10 9 -13 9 C-9.28570342 4.82141635 -5.35814198 1.82153171 0 0 Z " fill="#020202" transform="translate(692,516)"/>
<path d="M0 0 C0.33 0 0.66 0 1 0 C0.67 4.95 0.34 9.9 0 15 C-0.66 15 -1.32 15 -2 15 C-2.05429959 13.25034642 -2.09292823 11.50020213 -2.125 9.75 C-2.15980469 8.28820312 -2.15980469 8.28820312 -2.1953125 6.796875 C-1.99862781 3.9803502 -1.44568916 2.39050964 0 0 Z " fill="#0F0F0F" transform="translate(669,485)"/>
<path d="M0 0 C0.33 0.66 0.66 1.32 1 2 C-2.96 3.32 -6.92 4.64 -11 6 C-8.23221267 -0.91946833 -6.96860149 -0.12904818 0 0 Z " fill="#0F0F0F" transform="translate(438,456)"/>
<path d="M0 0 C-5.33333333 2 -10.66666667 4 -16 6 C-15 3 -15 3 -12.25 1.375 C-7.67568677 -0.56028637 -4.77892348 -1.33083945 0 0 Z " fill="#020202" transform="translate(672,456)"/>
<path d="M0 0 C0.825 0.309375 1.65 0.61875 2.5 0.9375 C6.39126155 2.11877583 9.96166953 2.58224168 14 3 C14 3.66 14 4.32 14 5 C8.32723489 5.29341888 5.00932754 5.00559652 0 2 C0 1.34 0 0.68 0 0 Z " fill="#020102" transform="translate(453,555)"/>
<path d="M0 0 C-0.5625 1.875 -0.5625 1.875 -2 4 C-5.625 5.25 -5.625 5.25 -9 6 C-9.33 5.34 -9.66 4.68 -10 4 C-8.71086513 3.32845067 -7.41859796 2.66291141 -6.125 2 C-5.40570313 1.62875 -4.68640625 1.2575 -3.9453125 0.875 C-2 0 -2 0 0 0 Z " fill="#030202" transform="translate(472,569)"/>
<path d="M0 0 C4.29 0.33 8.58 0.66 13 1 C6.62962963 4.18518519 6.62962963 4.18518519 2.8125 3.0625 C1.884375 2.711875 0.95625 2.36125 0 2 C0 1.34 0 0.68 0 0 Z " fill="#121212" transform="translate(304,500)"/>
<path d="M0 0 C-0.33 0.66 -0.66 1.32 -1 2 C-2.45792884 2.05399736 -3.91642712 2.09279177 -5.375 2.125 C-6.18710938 2.14820313 -6.99921875 2.17140625 -7.8359375 2.1953125 C-10 2 -10 2 -12 0 C-3.42857143 -1.28571429 -3.42857143 -1.28571429 0 0 Z " fill="#111111" transform="translate(231,575)"/>
<path d="M0 0 C1 3 1 3 -0.25 6.625 C-2 10 -2 10 -5 11 C-4.54917531 9.53932801 -4.08906463 8.08151968 -3.625 6.625 C-3.36976563 5.81289063 -3.11453125 5.00078125 -2.8515625 4.1640625 C-2 2 -2 2 0 0 Z " fill="#030303" transform="translate(818,545)"/>
<path d="M0 0 C0.66 0 1.32 0 2 0 C3.25390625 1.6796875 3.25390625 1.6796875 4.5625 3.875 C4.99691406 4.59429687 5.43132813 5.31359375 5.87890625 6.0546875 C6.62444953 7.34834796 7.33225871 8.66451742 8 10 C6.25 9.875 6.25 9.875 4 9 C0 3.88888889 0 3.88888889 0 0 Z " fill="#030303" transform="translate(641,488)"/>
<path d="M0 0 C0.66 0 1.32 0 2 0 C0.44499019 3.81684226 -2.03595495 6.19195732 -5 9 C-5.66 8.67 -6.32 8.34 -7 8 C-5.88200014 6.66079162 -4.75538103 5.32877444 -3.625 4 C-2.68527344 2.88625 -2.68527344 2.88625 -1.7265625 1.75 C-1.15679688 1.1725 -0.58703125 0.595 0 0 Z " fill="#010101" transform="translate(596,458)"/>
<path d="M0 0 C6.625 -0.25 6.625 -0.25 10 2 C9.67 2.66 9.34 3.32 9 4 C5.7 3.34 2.4 2.68 -1 2 C-0.67 1.34 -0.34 0.68 0 0 Z " fill="#030302" transform="translate(870,531)"/>
<path d="M0 0 C3.70129644 0.38961015 5.61879622 1.11749016 8 4 C7.67 4.99 7.34 5.98 7 7 C6.236875 6.38125 5.47375 5.7625 4.6875 5.125 C2.00374191 2.94402948 2.00374191 2.94402948 -1 1 C-0.67 0.67 -0.34 0.34 0 0 Z " fill="#030303" transform="translate(598,474)"/>
<path d="M0 0 C0 3 0 3 -1.3125 4.60546875 C-1.869375 5.12753906 -2.42625 5.64960938 -3 6.1875 C-3.556875 6.71730469 -4.11375 7.24710937 -4.6875 7.79296875 C-5.120625 8.19128906 -5.55375 8.58960938 -6 9 C-6.66 8.67 -7.32 8.34 -8 8 C-3.375 2.25 -3.375 2.25 0 0 Z " fill="#010101" transform="translate(652,462)"/>
<path d="M0 0 C0 3.93154432 -1.25327015 6.5065403 -3 10 C-3.99 10.33 -4.98 10.66 -6 11 C-4.74194623 6.49197399 -3.09592835 3.5087188 0 0 Z " fill="#020202" transform="translate(172,433)"/>
<path d="M0 0 C0.66 0 1.32 0 2 0 C5.125 6.625 5.125 6.625 4 10 C1.7448078 7.7448078 1.02276532 5.9952413 0 3 C0 2.01 0 1.02 0 0 Z " fill="#030303" transform="translate(118,520)"/>
<path d="M0 0 C0.33 0 0.66 0 1 0 C1 2.64 1 5.28 1 8 C-0.65 8.33 -2.3 8.66 -4 9 C-2.68 6.03 -1.36 3.06 0 0 Z " fill="#030302" transform="translate(234,554)"/>
<path d="M0 0 C-1.39332574 3.36720387 -2.9789286 4.9859524 -6 7 C-6.66 6.67 -7.32 6.34 -8 6 C-3.38461538 0 -3.38461538 0 0 0 Z " fill="#050505" transform="translate(335,520)"/>
<path d="M0 0 C1 3 1 3 -0.4375 6.1875 C-1.2109375 7.5796875 -1.2109375 7.5796875 -2 9 C-2.66 9 -3.32 9 -4 9 C-2.25 2.25 -2.25 2.25 0 0 Z " fill="#020302" transform="translate(830,516)"/>
<path d="M0 0 C0.66 0.33 1.32 0.66 2 1 C2 1.66 2 2.32 2 3 C-1.63 2.67 -5.26 2.34 -9 2 C-5.54337669 -0.30441554 -4.05142119 -0.25860135 0 0 Z " fill="#181818" transform="translate(230,400)"/>
<path d="M0 0 C-3.3340947 2.19097652 -6.04179141 3.43454163 -10 4 C-7.6604297 0.49064455 -4.21379901 -2.1068995 0 0 Z " fill="#030303" transform="translate(266,566)"/>
<path d="M0 0 C2.1519437 3.22791555 2.20086443 4.28400809 2 8 C-0.97 7.505 -0.97 7.505 -4 7 C-2.68 6.67 -1.36 6.34 0 6 C0 4.02 0 2.04 0 0 Z " fill="#010101" transform="translate(317,496)"/>
</svg>
